<svg xmlns="http://www.w3.org/2000/svg" xmlns:xlink="http://www.w3.org/1999/xlink" width="500" zoomAndPan="magnify" viewBox="0 0 375 374.999991" height="500" preserveAspectRatio="xMidYMid meet" version="1.0"><defs><clipPath id="76569455cb"><path d="M 95.285156 40 L 279.785156 40 L 279.785156 337.5 L 95.285156 337.5 Z M 95.285156 40 " clip-rule="nonzero"/></clipPath></defs><g clip-path="url(#76569455cb)"><path fill="#c33332" d="M 187.808594 337.5 C 181 304.070312 168.996094 276.253906 154.453125 250.472656 C 143.667969 231.351562 131.171875 213.699219 119.609375 195.152344 C 115.75 188.960938 112.421875 182.421875 108.710938 176 C 101.296875 163.152344 95.285156 148.253906 95.667969 128.9375 C 96.039062 110.058594 101.5 94.914062 109.375 82.535156 C 122.320312 62.167969 144.011719 45.472656 173.113281 41.085938 C 196.910156 37.496094 219.21875 43.558594 235.039062 52.808594 C 247.964844 60.367188 257.980469 70.46875 265.589844 82.367188 C 273.53125 94.789062 279 109.464844 279.460938 128.605469 C 279.695312 138.410156 278.089844 147.492188 275.828125 155.027344 C 273.539062 162.652344 269.855469 169.023438 266.582031 175.832031 C 260.183594 189.121094 252.167969 201.300781 244.121094 213.480469 C 220.15625 249.773438 197.660156 286.785156 187.8125 337.5 Z M 187.808594 337.5 " fill-opacity="1" fill-rule="evenodd"/></g><path fill="#ffffff" d="M 219.769531 128.726562 C 219.769531 129.78125 219.71875 130.832031 219.613281 131.882812 C 219.511719 132.933594 219.355469 133.972656 219.148438 135.007812 C 218.945312 136.042969 218.6875 137.066406 218.382812 138.074219 C 218.074219 139.082031 217.722656 140.074219 217.316406 141.050781 C 216.914062 142.023438 216.464844 142.976562 215.964844 143.90625 C 215.46875 144.835938 214.925781 145.742188 214.339844 146.617188 C 213.753906 147.496094 213.128906 148.339844 212.457031 149.15625 C 211.789062 149.972656 211.082031 150.75 210.335938 151.496094 C 209.589844 152.242188 208.808594 152.949219 207.996094 153.621094 C 207.179688 154.289062 206.332031 154.914062 205.457031 155.5 C 204.578125 156.085938 203.675781 156.628906 202.746094 157.125 C 201.816406 157.625 200.863281 158.074219 199.890625 158.476562 C 198.914062 158.882812 197.921875 159.234375 196.914062 159.542969 C 195.90625 159.847656 194.882812 160.105469 193.847656 160.308594 C 192.8125 160.515625 191.773438 160.671875 190.722656 160.773438 C 189.671875 160.878906 188.621094 160.929688 187.566406 160.929688 C 186.511719 160.929688 185.460938 160.878906 184.410156 160.773438 C 183.359375 160.671875 182.316406 160.515625 181.285156 160.308594 C 180.25 160.105469 179.226562 159.847656 178.21875 159.542969 C 177.207031 159.234375 176.21875 158.882812 175.242188 158.476562 C 174.269531 158.074219 173.316406 157.625 172.386719 157.125 C 171.457031 156.628906 170.550781 156.085938 169.675781 155.5 C 168.796875 154.914062 167.953125 154.289062 167.136719 153.621094 C 166.320312 152.949219 165.542969 152.242188 164.796875 151.496094 C 164.050781 150.75 163.34375 149.972656 162.671875 149.15625 C 162.003906 148.339844 161.375 147.496094 160.789062 146.617188 C 160.203125 145.742188 159.664062 144.835938 159.167969 143.90625 C 158.667969 142.976562 158.21875 142.023438 157.816406 141.050781 C 157.410156 140.074219 157.054688 139.082031 156.75 138.074219 C 156.445312 137.066406 156.1875 136.042969 155.984375 135.007812 C 155.777344 133.972656 155.621094 132.933594 155.519531 131.882812 C 155.414062 130.832031 155.363281 129.78125 155.363281 128.726562 C 155.363281 127.671875 155.414062 126.621094 155.519531 125.570312 C 155.621094 124.519531 155.777344 123.480469 155.984375 122.445312 C 156.1875 121.410156 156.445312 120.386719 156.75 119.378906 C 157.054688 118.371094 157.410156 117.378906 157.816406 116.402344 C 158.21875 115.429688 158.667969 114.476562 159.167969 113.546875 C 159.664062 112.617188 160.203125 111.710938 160.789062 110.835938 C 161.375 109.957031 162.003906 109.113281 162.671875 108.296875 C 163.34375 107.480469 164.050781 106.703125 164.796875 105.957031 C 165.542969 105.210938 166.320312 104.503906 167.136719 103.832031 C 167.953125 103.164062 168.796875 102.539062 169.675781 101.953125 C 170.550781 101.363281 171.457031 100.824219 172.386719 100.328125 C 173.316406 99.828125 174.269531 99.378906 175.242188 98.976562 C 176.21875 98.570312 177.210938 98.21875 178.21875 97.910156 C 179.226562 97.605469 180.25 97.347656 181.285156 97.144531 C 182.316406 96.9375 183.359375 96.78125 184.410156 96.679688 C 185.460938 96.574219 186.511719 96.523438 187.566406 96.523438 C 188.621094 96.523438 189.671875 96.574219 190.722656 96.679688 C 191.773438 96.78125 192.8125 96.9375 193.847656 97.144531 C 194.882812 97.347656 195.90625 97.605469 196.914062 97.910156 C 197.921875 98.21875 198.914062 98.570312 199.890625 98.976562 C 200.863281 99.378906 201.816406 99.828125 202.746094 100.328125 C 203.675781 100.824219 204.578125 101.363281 205.457031 101.953125 C 206.332031 102.539062 207.179688 103.164062 207.996094 103.832031 C 208.808594 104.503906 209.589844 105.210938 210.335938 105.957031 C 211.082031 106.703125 211.789062 107.480469 212.457031 108.296875 C 213.128906 109.113281 213.753906 109.957031 214.339844 110.835938 C 214.925781 111.710938 215.46875 112.617188 215.964844 113.546875 C 216.464844 114.476562 216.914062 115.429688 217.316406 116.402344 C 217.722656 117.378906 218.074219 118.371094 218.382812 119.378906 C 218.6875 120.386719 218.945312 121.410156 219.148438 122.445312 C 219.355469 123.480469 219.511719 124.519531 219.613281 125.570312 C 219.71875 126.621094 219.769531 127.671875 219.769531 128.726562 Z M 219.769531 128.726562 " fill-opacity="1" fill-rule="nonzero"/></svg>