<svg xmlns="http://www.w3.org/2000/svg" xmlns:xlink="http://www.w3.org/1999/xlink" width="1000" zoomAndPan="magnify" viewBox="0 0 375 374.999991" height="1000" preserveAspectRatio="xMidYMid meet" version="1.0"><defs><clipPath id="f2c0010503"><path d="M 141.394531 113 L 233.644531 113 L 233.644531 262.5 L 141.394531 262.5 Z M 141.394531 113 " clip-rule="nonzero"/></clipPath></defs><g clip-path="url(#f2c0010503)"><path fill="#c33332" d="M 187.652344 262.496094 C 184.246094 245.78125 178.246094 231.875 170.976562 218.984375 C 165.582031 209.421875 159.335938 200.597656 153.554688 191.328125 C 151.625 188.230469 149.960938 184.960938 148.105469 181.75 C 144.398438 175.328125 141.390625 167.878906 141.582031 158.21875 C 141.769531 148.78125 144.5 141.210938 148.4375 135.019531 C 154.910156 124.839844 165.753906 116.492188 180.304688 114.296875 C 192.203125 112.503906 203.355469 115.535156 211.265625 120.160156 C 217.726562 123.9375 222.734375 128.988281 226.539062 134.9375 C 230.511719 141.148438 233.246094 148.484375 233.472656 158.054688 C 233.589844 162.957031 232.789062 167.496094 231.65625 171.265625 C 230.511719 175.078125 228.671875 178.261719 227.035156 181.667969 C 223.835938 188.3125 219.828125 194.398438 215.804688 200.492188 C 203.824219 218.636719 192.578125 237.140625 187.652344 262.496094 Z M 187.652344 262.496094 " fill-opacity="1" fill-rule="evenodd"/></g><path fill="#ffffff" d="M 203.628906 158.113281 C 203.628906 158.640625 203.605469 159.167969 203.554688 159.691406 C 203.5 160.21875 203.425781 160.738281 203.320312 161.257812 C 203.21875 161.773438 203.089844 162.285156 202.9375 162.789062 C 202.785156 163.292969 202.605469 163.789062 202.40625 164.277344 C 202.203125 164.761719 201.976562 165.238281 201.730469 165.703125 C 201.480469 166.167969 201.210938 166.621094 200.917969 167.058594 C 200.625 167.5 200.308594 167.921875 199.976562 168.328125 C 199.640625 168.738281 199.289062 169.125 198.914062 169.5 C 198.542969 169.871094 198.152344 170.226562 197.742188 170.5625 C 197.335938 170.894531 196.914062 171.210938 196.476562 171.5 C 196.035156 171.792969 195.585938 172.066406 195.121094 172.3125 C 194.65625 172.5625 194.179688 172.789062 193.691406 172.988281 C 193.203125 173.191406 192.707031 173.367188 192.203125 173.523438 C 191.699219 173.675781 191.1875 173.804688 190.671875 173.90625 C 190.152344 174.007812 189.632812 174.085938 189.109375 174.136719 C 188.582031 174.191406 188.058594 174.214844 187.53125 174.214844 C 187.003906 174.214844 186.476562 174.191406 185.953125 174.136719 C 185.425781 174.085938 184.90625 174.007812 184.390625 173.90625 C 183.871094 173.804688 183.359375 173.675781 182.855469 173.523438 C 182.351562 173.367188 181.855469 173.191406 181.367188 172.988281 C 180.882812 172.789062 180.40625 172.5625 179.941406 172.3125 C 179.476562 172.066406 179.023438 171.792969 178.585938 171.5 C 178.148438 171.210938 177.722656 170.894531 177.316406 170.5625 C 176.910156 170.226562 176.519531 169.871094 176.144531 169.5 C 175.773438 169.125 175.417969 168.738281 175.085938 168.328125 C 174.75 167.921875 174.4375 167.5 174.144531 167.058594 C 173.851562 166.621094 173.578125 166.167969 173.332031 165.703125 C 173.082031 165.238281 172.855469 164.761719 172.65625 164.277344 C 172.453125 163.789062 172.277344 163.292969 172.125 162.789062 C 171.96875 162.285156 171.84375 161.773438 171.738281 161.257812 C 171.636719 160.738281 171.558594 160.21875 171.507812 159.691406 C 171.457031 159.167969 171.429688 158.640625 171.429688 158.113281 C 171.429688 157.585938 171.457031 157.0625 171.507812 156.535156 C 171.558594 156.011719 171.636719 155.492188 171.738281 154.972656 C 171.84375 154.457031 171.96875 153.945312 172.125 153.441406 C 172.277344 152.9375 172.453125 152.441406 172.65625 151.953125 C 172.855469 151.464844 173.082031 150.992188 173.332031 150.527344 C 173.578125 150.058594 173.851562 149.609375 174.144531 149.171875 C 174.4375 148.730469 174.75 148.308594 175.085938 147.902344 C 175.417969 147.492188 175.773438 147.101562 176.144531 146.730469 C 176.519531 146.359375 176.910156 146.003906 177.316406 145.667969 C 177.722656 145.335938 178.148438 145.019531 178.585938 144.726562 C 179.023438 144.433594 179.476562 144.164062 179.941406 143.917969 C 180.40625 143.667969 180.882812 143.441406 181.367188 143.242188 C 181.855469 143.039062 182.351562 142.859375 182.855469 142.707031 C 183.359375 142.554688 183.871094 142.425781 184.390625 142.324219 C 184.90625 142.222656 185.425781 142.144531 185.953125 142.09375 C 186.476562 142.039062 187.003906 142.015625 187.53125 142.015625 C 188.058594 142.015625 188.582031 142.039062 189.109375 142.09375 C 189.632812 142.144531 190.152344 142.222656 190.671875 142.324219 C 191.1875 142.425781 191.699219 142.554688 192.203125 142.707031 C 192.707031 142.859375 193.203125 143.039062 193.691406 143.242188 C 194.179688 143.441406 194.65625 143.667969 195.121094 143.917969 C 195.585938 144.164062 196.035156 144.433594 196.476562 144.726562 C 196.914062 145.019531 197.335938 145.335938 197.742188 145.667969 C 198.152344 146.003906 198.542969 146.359375 198.914062 146.730469 C 199.289062 147.101562 199.640625 147.492188 199.976562 147.902344 C 200.308594 148.308594 200.625 148.730469 200.917969 149.171875 C 201.210938 149.609375 201.480469 150.058594 201.730469 150.527344 C 201.976562 150.992188 202.203125 151.464844 202.40625 151.953125 C 202.605469 152.441406 202.785156 152.9375 202.9375 153.441406 C 203.089844 153.945312 203.21875 154.457031 203.320312 154.972656 C 203.425781 155.492188 203.5 156.011719 203.554688 156.535156 C 203.605469 157.0625 203.628906 157.585938 203.628906 158.113281 Z M 203.628906 158.113281 " fill-opacity="1" fill-rule="nonzero"/></svg>