<svg xmlns="http://www.w3.org/2000/svg" xmlns:xlink="http://www.w3.org/1999/xlink" width="500" zoomAndPan="magnify" viewBox="0 0 375 374.999991" height="500" preserveAspectRatio="xMidYMid meet" version="1.2"><defs><clipPath id="f10330040a"><path d="M 112.339844 84.542969 L 262.339844 84.542969 L 262.339844 290.792969 L 112.339844 290.792969 Z M 112.339844 84.542969 "/></clipPath><clipPath id="8d500fba81"><path d="M 181 84.542969 L 262.339844 84.542969 L 262.339844 290.792969 L 181 290.792969 Z M 181 84.542969 "/></clipPath><clipPath id="34e8e65de3"><path d="M 112.339844 107 L 168 107 L 168 191 L 112.339844 191 Z M 112.339844 107 "/></clipPath><clipPath id="eb2737c027"><path d="M 133 84.542969 L 218 84.542969 L 218 141 L 133 141 Z M 133 84.542969 "/></clipPath><clipPath id="c0870836d0"><path d="M 181 84.542969 L 218 84.542969 L 218 96 L 181 96 Z M 181 84.542969 "/></clipPath></defs><g id="b9b08623d5"><g clip-rule="nonzero" clip-path="url(#f10330040a)"><path style=" stroke:none;fill-rule:nonzero;fill:#4caf50;fill-opacity:1;" d="M 187.339844 84.605469 C 145.917969 84.605469 112.339844 118.332031 112.339844 159.929688 C 112.339844 205.722656 143.601562 216.515625 160 244.589844 C 175.269531 270.71875 175.28125 290.726562 187.339844 290.726562 C 199.84375 290.726562 199.054688 272.089844 214.679688 244.59375 C 230.296875 217.089844 262.339844 205.722656 262.339844 159.929688 C 262.339844 118.332031 228.761719 84.605469 187.339844 84.605469 Z M 187.339844 188.792969 C 171.84375 188.792969 159.28125 176.179688 159.28125 160.617188 C 159.28125 152.832031 162.421875 145.792969 167.5 140.691406 C 172.578125 135.59375 179.59375 132.4375 187.339844 132.4375 C 202.835938 132.4375 215.394531 145.050781 215.394531 160.617188 C 215.394531 176.179688 202.835938 188.792969 187.339844 188.792969 Z M 187.339844 188.792969 "/></g><g clip-rule="nonzero" clip-path="url(#8d500fba81)"><path style=" stroke:none;fill-rule:nonzero;fill:#43a047;fill-opacity:1;" d="M 187.339844 84.605469 C 185.253906 84.605469 183.1875 84.695312 181.140625 84.863281 C 219.664062 88.03125 249.941406 120.429688 249.941406 159.929688 C 249.941406 205.722656 217.902344 217.089844 202.28125 244.589844 C 189.90625 266.371094 187.828125 282.589844 181.285156 288.394531 C 182.960938 289.910156 184.90625 290.726562 187.339844 290.726562 C 199.84375 290.726562 199.054688 272.089844 214.679688 244.59375 C 230.296875 217.089844 262.339844 205.722656 262.339844 159.929688 C 262.339844 118.332031 228.761719 84.605469 187.339844 84.605469 Z M 187.339844 84.605469 "/></g><g clip-rule="nonzero" clip-path="url(#34e8e65de3)"><path style=" stroke:none;fill-rule:nonzero;fill:#f44336;fill-opacity:1;" d="M 167.5 140.691406 L 118.191406 190.214844 C 114.582031 181.964844 112.339844 172.203125 112.339844 159.929688 C 112.339844 139.300781 120.597656 120.617188 133.96875 107.011719 Z M 167.5 140.691406 "/></g><path style=" stroke:none;fill-rule:nonzero;fill:#42a5f5;fill-opacity:1;" d="M 207.375 180.339844 C 212.335938 175.257812 215.394531 168.296875 215.394531 160.617188 C 215.394531 145.050781 202.835938 132.4375 187.339844 132.4375 C 179.589844 132.4375 172.578125 135.589844 167.5 140.691406 L 217.171875 90.804688 C 234.929688 98.539062 249.113281 112.972656 256.578125 130.929688 L 207.375 180.347656 Z M 207.375 180.339844 "/><path style=" stroke:none;fill-rule:nonzero;fill:#2196f3;fill-opacity:1;" d="M 217.171875 90.804688 L 212.984375 95.007812 C 229.644531 104.875 242.175781 121.019531 247.34375 140.207031 L 256.578125 130.929688 C 249.113281 112.972656 234.929688 98.539062 217.171875 90.804688 Z M 217.171875 90.804688 "/><path style=" stroke:none;fill-rule:nonzero;fill:#ffc107;fill-opacity:1;" d="M 207.375 180.347656 L 153.222656 234.734375 C 141.445312 219.839844 126.339844 208.886719 118.191406 190.214844 L 167.5 140.691406 C 162.421875 145.789062 159.28125 152.835938 159.28125 160.617188 C 159.28125 176.175781 171.84375 188.792969 187.339844 188.792969 C 195.1875 188.792969 202.28125 185.554688 207.375 180.339844 Z M 207.375 180.347656 "/><g clip-rule="nonzero" clip-path="url(#eb2737c027)"><path style=" stroke:none;fill-rule:nonzero;fill:#1e88e5;fill-opacity:1;" d="M 217.171875 90.804688 L 167.5 140.691406 L 133.96875 107.015625 C 147.566406 93.179688 166.457031 84.605469 187.339844 84.605469 C 197.941406 84.605469 208.03125 86.816406 217.171875 90.804688 Z M 217.171875 90.804688 "/></g><g clip-rule="nonzero" clip-path="url(#c0870836d0)"><path style=" stroke:none;fill-rule:nonzero;fill:#1976d2;fill-opacity:1;" d="M 187.339844 84.605469 C 185.253906 84.605469 183.1875 84.695312 181.144531 84.863281 C 181.144531 84.863281 181.140625 84.863281 181.140625 84.863281 C 192.695312 85.8125 203.507812 89.394531 212.988281 95.007812 L 217.171875 90.804688 C 208.03125 86.816406 197.941406 84.605469 187.339844 84.605469 Z M 187.339844 84.605469 "/></g></g></svg>