<svg xmlns="http://www.w3.org/2000/svg" xmlns:xlink="http://www.w3.org/1999/xlink" width="500" zoomAndPan="magnify" viewBox="0 0 375 374.999991" height="500" preserveAspectRatio="xMidYMid meet" version="1.2"><defs><clipPath id="7a3a627193"><path d="M 70.128906 26.71875 L 304.878906 26.71875 L 304.878906 348.46875 L 70.128906 348.46875 Z M 70.128906 26.71875 "/></clipPath><clipPath id="231873d247"><path d="M 177 26.71875 L 304.878906 26.71875 L 304.878906 348.46875 L 177 348.46875 Z M 177 26.71875 "/></clipPath><clipPath id="2dcc7e3606"><path d="M 70.128906 61 L 157 61 L 157 192 L 70.128906 192 Z M 70.128906 61 "/></clipPath><clipPath id="4da936471d"><path d="M 103 26.71875 L 235 26.71875 L 235 115 L 103 115 Z M 103 26.71875 "/></clipPath><clipPath id="0e3a247a62"><path d="M 177 26.71875 L 235 26.71875 L 235 44 L 177 44 Z M 177 26.71875 "/></clipPath></defs><g id="58305465d3"><g clip-rule="nonzero" clip-path="url(#7a3a627193)"><path style=" stroke:none;fill-rule:nonzero;fill:#4caf50;fill-opacity:1;" d="M 187.503906 26.820312 C 122.679688 26.820312 70.128906 79.433594 70.128906 144.324219 C 70.128906 215.761719 119.050781 232.59375 144.71875 276.394531 C 168.613281 317.152344 168.632812 348.363281 187.503906 348.363281 C 207.074219 348.363281 205.835938 319.289062 230.289062 276.394531 C 254.734375 233.496094 304.878906 215.761719 304.878906 144.324219 C 304.878906 79.433594 252.328125 26.820312 187.503906 26.820312 Z M 187.503906 189.351562 C 163.253906 189.351562 143.59375 169.671875 143.59375 145.398438 C 143.59375 133.253906 148.507812 122.269531 156.457031 114.3125 C 164.402344 106.359375 175.378906 101.4375 187.503906 101.4375 C 211.753906 101.4375 231.40625 121.117188 231.40625 145.398438 C 231.40625 169.671875 211.753906 189.351562 187.503906 189.351562 Z M 187.503906 189.351562 "/></g><g clip-rule="nonzero" clip-path="url(#231873d247)"><path style=" stroke:none;fill-rule:nonzero;fill:#43a047;fill-opacity:1;" d="M 187.503906 26.820312 C 184.238281 26.820312 181.003906 26.960938 177.804688 27.222656 C 238.089844 32.164062 285.476562 82.703125 285.476562 144.324219 C 285.476562 215.761719 235.332031 233.496094 210.886719 276.394531 C 191.519531 310.367188 188.265625 335.667969 178.027344 344.722656 C 180.652344 347.089844 183.695312 348.363281 187.503906 348.363281 C 207.074219 348.363281 205.835938 319.289062 230.289062 276.394531 C 254.734375 233.496094 304.878906 215.761719 304.878906 144.324219 C 304.878906 79.433594 252.328125 26.824219 187.503906 26.824219 Z M 187.503906 26.820312 "/></g><g clip-rule="nonzero" clip-path="url(#2dcc7e3606)"><path style=" stroke:none;fill-rule:nonzero;fill:#f44336;fill-opacity:1;" d="M 156.453125 114.3125 L 79.285156 191.566406 C 73.640625 178.695312 70.128906 163.472656 70.128906 144.324219 C 70.128906 112.148438 83.050781 82.996094 103.976562 61.777344 Z M 156.453125 114.3125 "/></g><path style=" stroke:none;fill-rule:nonzero;fill:#42a5f5;fill-opacity:1;" d="M 218.859375 176.164062 C 226.621094 168.234375 231.410156 157.375 231.410156 145.398438 C 231.410156 121.117188 211.753906 101.4375 187.503906 101.4375 C 175.378906 101.4375 164.402344 106.359375 156.457031 114.3125 L 234.191406 36.492188 C 261.980469 48.558594 284.179688 71.074219 295.863281 99.089844 L 218.859375 176.171875 Z M 218.859375 176.164062 "/><path style=" stroke:none;fill-rule:nonzero;fill:#2196f3;fill-opacity:1;" d="M 234.191406 36.492188 L 227.640625 43.050781 C 253.710938 58.441406 273.320312 83.628906 281.410156 113.554688 L 295.863281 99.089844 C 284.179688 71.074219 261.980469 48.558594 234.191406 36.492188 Z M 234.191406 36.492188 "/><path style=" stroke:none;fill-rule:nonzero;fill:#ffc107;fill-opacity:1;" d="M 218.859375 176.171875 L 134.109375 261.019531 C 115.679688 237.78125 92.039062 220.695312 79.285156 191.566406 L 156.457031 114.3125 C 148.507812 122.269531 143.59375 133.257812 143.59375 145.398438 C 143.59375 169.671875 163.25 189.351562 187.503906 189.351562 C 199.785156 189.351562 210.890625 184.300781 218.859375 176.164062 Z M 218.859375 176.171875 "/><g clip-rule="nonzero" clip-path="url(#4da936471d)"><path style=" stroke:none;fill-rule:nonzero;fill:#1e88e5;fill-opacity:1;" d="M 234.191406 36.492188 L 156.453125 114.3125 L 103.976562 61.777344 C 125.257812 40.195312 154.824219 26.820312 187.503906 26.820312 C 204.097656 26.820312 219.886719 30.269531 234.191406 36.492188 Z M 234.191406 36.492188 "/></g><g clip-rule="nonzero" clip-path="url(#0e3a247a62)"><path style=" stroke:none;fill-rule:nonzero;fill:#1976d2;fill-opacity:1;" d="M 187.503906 26.820312 C 184.238281 26.820312 181.003906 26.960938 177.804688 27.222656 C 177.804688 27.222656 177.804688 27.226562 177.804688 27.226562 C 195.886719 28.707031 212.808594 34.296875 227.640625 43.050781 L 234.191406 36.492188 C 219.886719 30.269531 204.097656 26.820312 187.503906 26.820312 Z M 187.503906 26.820312 "/></g></g></svg>