<svg xmlns="http://www.w3.org/2000/svg" xmlns:xlink="http://www.w3.org/1999/xlink" width="500" zoomAndPan="magnify" viewBox="0 0 375 374.999991" height="500" preserveAspectRatio="xMidYMid meet" version="1.0"><defs><clipPath id="8e22684fc3"><path d="M 57 90.214844 L 317.914062 90.214844 L 317.914062 284.464844 L 57 284.464844 Z M 57 90.214844 " clip-rule="nonzero"/></clipPath></defs><g clip-path="url(#8e22684fc3)"><path fill="#000000" d="M 314.609375 243.164062 C 313.8125 241.683594 312.882812 240.289062 311.828125 238.980469 C 310.769531 237.671875 309.601562 236.46875 308.328125 235.375 C 307.050781 234.28125 305.683594 233.308594 304.226562 232.464844 C 302.773438 231.625 301.253906 230.917969 299.667969 230.355469 C 297.222656 231.085938 294.742188 231.667969 292.226562 232.113281 C 286.652344 233.1875 281.390625 234.203125 276.390625 239.136719 C 271.382812 244.082031 269.65625 248.652344 267.828125 253.492188 C 266.703125 256.472656 265.539062 259.550781 263.582031 262.625 C 263.863281 264.152344 264.308594 265.628906 264.917969 267.058594 C 265.410156 268.234375 265.976562 269.371094 266.625 270.472656 C 267.273438 271.570312 267.992188 272.617188 268.785156 273.613281 C 269.578125 274.613281 270.4375 275.550781 271.359375 276.429688 C 272.28125 277.308594 273.261719 278.117188 274.300781 278.859375 C 275.335938 279.601562 276.417969 280.269531 277.546875 280.863281 C 278.675781 281.453125 279.839844 281.964844 281.039062 282.394531 C 282.238281 282.824219 283.464844 283.167969 284.710938 283.429688 C 285.957031 283.6875 287.21875 283.859375 288.488281 283.945312 C 289.761719 284.03125 291.035156 284.027344 292.304688 283.933594 C 293.574219 283.839844 294.835938 283.660156 296.082031 283.394531 C 297.328125 283.128906 298.546875 282.777344 299.746094 282.339844 C 300.945312 281.902344 302.105469 281.382812 303.230469 280.785156 C 304.355469 280.1875 305.433594 279.511719 306.464844 278.765625 C 307.496094 278.015625 308.472656 277.199219 309.390625 276.316406 C 310.308594 275.433594 311.160156 274.488281 311.949219 273.488281 C 312.734375 272.484375 313.449219 271.433594 314.089844 270.332031 C 314.40625 269.792969 314.707031 269.246094 314.988281 268.6875 C 316.582031 265.53125 317.527344 262.191406 317.824219 258.667969 C 317.890625 257.890625 317.941406 257.109375 317.941406 256.316406 C 317.949219 251.648438 316.839844 247.265625 314.609375 243.164062 Z M 305.007812 260.191406 C 304.835938 260.796875 304.628906 261.390625 304.382812 261.96875 C 304.140625 262.550781 303.859375 263.109375 303.542969 263.65625 C 303.230469 264.199219 302.878906 264.722656 302.5 265.222656 C 302.117188 265.722656 301.707031 266.199219 301.265625 266.648438 C 300.828125 267.097656 300.359375 267.519531 299.867188 267.910156 C 299.371094 268.296875 298.855469 268.65625 298.316406 268.984375 C 297.78125 269.308594 297.222656 269.597656 296.648438 269.855469 C 296.074219 270.109375 295.484375 270.328125 294.882812 270.511719 C 294.277344 270.691406 293.667969 270.835938 293.046875 270.941406 C 292.425781 271.046875 291.800781 271.113281 291.171875 271.136719 C 290.542969 271.164062 289.917969 271.152344 289.289062 271.101562 C 288.664062 271.046875 288.039062 270.957031 287.425781 270.824219 C 286.808594 270.695312 286.203125 270.527344 285.609375 270.320312 C 285.015625 270.113281 284.4375 269.871094 283.871094 269.59375 C 283.308594 269.3125 282.765625 269 282.238281 268.652344 C 281.714844 268.304688 281.214844 267.925781 280.738281 267.515625 C 280.261719 267.105469 279.8125 266.664062 279.386719 266.199219 C 278.964844 265.730469 278.574219 265.238281 278.214844 264.722656 C 277.855469 264.207031 277.527344 263.671875 277.238281 263.113281 C 276.945312 262.558594 276.6875 261.984375 276.464844 261.394531 C 276.246094 260.804688 276.0625 260.203125 275.917969 259.59375 C 275.773438 258.980469 275.664062 258.359375 275.597656 257.734375 C 275.53125 257.109375 275.503906 256.480469 275.515625 255.851562 C 275.523438 255.222656 275.574219 254.597656 275.664062 253.976562 C 275.753906 253.351562 275.882812 252.738281 276.050781 252.128906 C 276.21875 251.523438 276.421875 250.929688 276.664062 250.347656 C 276.90625 249.769531 277.183594 249.203125 277.496094 248.660156 C 277.808594 248.113281 278.15625 247.585938 278.535156 247.085938 C 278.910156 246.582031 279.320312 246.105469 279.757812 245.652344 C 280.195312 245.203125 280.660156 244.78125 281.152344 244.386719 C 281.644531 243.992188 282.160156 243.632812 282.695312 243.304688 C 283.234375 242.976562 283.789062 242.683594 284.363281 242.421875 C 284.933594 242.164062 285.523438 241.941406 286.125 241.757812 C 286.726562 241.574219 287.335938 241.425781 287.957031 241.320312 C 288.578125 241.210938 289.199219 241.140625 289.828125 241.113281 C 290.457031 241.082031 291.085938 241.089844 291.714844 241.140625 C 292.339844 241.191406 292.960938 241.277344 293.578125 241.40625 C 294.195312 241.53125 294.800781 241.699219 295.398438 241.902344 C 295.992188 242.105469 296.574219 242.34375 297.136719 242.621094 C 297.703125 242.898438 298.25 243.207031 298.777344 243.550781 C 299.300781 243.898438 299.804688 244.273438 300.285156 244.683594 C 300.761719 245.089844 301.214844 245.527344 301.640625 245.992188 C 302.0625 246.457031 302.457031 246.945312 302.820312 247.460938 C 303.183594 247.972656 303.511719 248.507812 303.808594 249.0625 C 304.101562 249.621094 304.363281 250.191406 304.585938 250.78125 C 304.808594 251.367188 304.996094 251.96875 305.144531 252.578125 C 305.292969 253.191406 305.402344 253.808594 305.472656 254.433594 C 305.542969 255.058594 305.574219 255.6875 305.566406 256.316406 C 305.546875 257.632812 305.363281 258.921875 305.007812 260.191406 Z M 278.160156 234.9375 C 279.699219 233.863281 281.347656 232.988281 283.097656 232.308594 C 283.652344 232.09375 284.207031 231.898438 284.765625 231.71875 C 286.992188 231.046875 289.25 230.511719 291.542969 230.113281 C 292.113281 230.003906 292.6875 229.890625 293.261719 229.78125 C 294.066406 229.621094 294.878906 229.445312 295.691406 229.261719 C 296.039062 229.179688 296.382812 229.105469 296.730469 229.019531 C 298.535156 228.582031 300.292969 228.003906 302.003906 227.277344 C 303.121094 226.804688 304.199219 226.253906 305.238281 225.628906 C 305.683594 225.359375 306.085938 225.097656 306.441406 224.84375 C 307.382812 224.222656 308.21875 223.484375 308.949219 222.625 C 306.652344 220.921875 304.175781 219.546875 301.515625 218.503906 C 301.296875 218.414062 301.078125 218.320312 300.855469 218.234375 C 299.667969 217.78125 298.460938 217.390625 297.230469 217.0625 C 296.992188 217 296.753906 216.945312 296.515625 216.890625 C 295.222656 216.566406 293.914062 216.316406 292.59375 216.140625 C 291.230469 215.976562 289.867188 215.890625 288.496094 215.878906 C 288.234375 215.875 287.976562 215.863281 287.710938 215.867188 C 286.636719 215.875 285.554688 215.917969 284.464844 216.027344 C 280.0625 216.46875 275.890625 217.683594 271.9375 219.671875 L 274.207031 216.382812 L 275.320312 214.765625 C 275.851562 214 276.28125 213.175781 276.609375 212.304688 C 276.941406 211.429688 277.160156 210.53125 277.273438 209.601562 C 277.382812 208.675781 277.382812 207.746094 277.269531 206.820312 C 277.152344 205.894531 276.929688 204.992188 276.597656 204.121094 L 261.800781 165.320312 L 270.921875 166.773438 C 271.152344 166.808594 271.386719 166.820312 271.617188 166.804688 C 271.851562 166.792969 272.082031 166.753906 272.308594 166.691406 C 272.53125 166.628906 272.75 166.539062 272.957031 166.429688 C 273.160156 166.320312 273.355469 166.1875 273.53125 166.035156 C 273.710938 165.882812 273.871094 165.714844 274.011719 165.527344 C 274.152344 165.339844 274.273438 165.140625 274.371094 164.929688 C 274.46875 164.714844 274.542969 164.496094 274.59375 164.265625 C 274.644531 164.039062 274.667969 163.804688 274.667969 163.574219 L 274.667969 146.539062 C 274.667969 146.304688 274.644531 146.074219 274.59375 145.84375 C 274.542969 145.617188 274.46875 145.394531 274.371094 145.183594 C 274.273438 144.96875 274.152344 144.769531 274.011719 144.585938 C 273.871094 144.398438 273.710938 144.226562 273.53125 144.074219 C 273.355469 143.925781 273.160156 143.792969 272.957031 143.683594 C 272.75 143.570312 272.53125 143.484375 272.308594 143.421875 C 272.082031 143.359375 271.851562 143.320312 271.617188 143.304688 C 271.386719 143.292969 271.152344 143.304688 270.921875 143.339844 L 250.007812 146.667969 C 249.5625 146.738281 249.140625 146.882812 248.746094 147.105469 C 248.351562 147.328125 248.007812 147.609375 247.714844 147.953125 C 247.421875 148.296875 247.195312 148.679688 247.039062 149.105469 C 246.882812 149.53125 246.804688 149.96875 246.804688 150.421875 L 246.804688 153.5625 C 246.488281 153.496094 246.164062 153.453125 245.839844 153.4375 L 229.167969 153.222656 C 228.605469 153.203125 228.074219 153.066406 227.570312 152.816406 C 227.066406 152.566406 226.636719 152.222656 226.28125 151.785156 L 211.191406 133.195312 C 202.84375 122.964844 188.597656 126.152344 185.914062 139.082031 L 178.070312 168.566406 C 177.820312 169.765625 177.683594 170.980469 177.65625 172.207031 C 177.632812 173.4375 177.71875 174.65625 177.921875 175.867188 C 178.121094 177.078125 178.433594 178.257812 178.855469 179.410156 C 179.277344 180.566406 179.800781 181.667969 180.425781 182.722656 C 181.054688 183.78125 181.773438 184.769531 182.582031 185.691406 C 183.390625 186.613281 184.28125 187.453125 185.246094 188.210938 C 186.214844 188.964844 187.242188 189.628906 188.332031 190.191406 C 189.421875 190.757812 190.554688 191.21875 191.730469 191.574219 L 143.28125 191.574219 C 143.042969 191.574219 142.8125 191.621094 142.59375 191.710938 C 142.375 191.800781 142.179688 191.929688 142.011719 192.097656 C 141.84375 192.265625 141.714844 192.460938 141.625 192.679688 C 141.535156 192.902344 141.488281 193.128906 141.488281 193.367188 L 141.488281 200.109375 C 141.488281 200.347656 141.535156 200.574219 141.625 200.792969 C 141.714844 201.011719 141.84375 201.207031 142.011719 201.375 C 142.179688 201.542969 142.375 201.671875 142.59375 201.765625 C 142.8125 201.855469 143.042969 201.902344 143.28125 201.902344 L 210.4375 201.902344 C 210.675781 201.902344 210.902344 201.855469 211.125 201.765625 C 211.34375 201.671875 211.539062 201.542969 211.707031 201.375 C 211.875 201.207031 212.003906 201.015625 212.09375 200.792969 C 212.1875 200.574219 212.230469 200.347656 212.230469 200.109375 L 212.230469 194.773438 L 221.386719 196.089844 L 214.140625 228.324219 C 214.054688 228.800781 214.019531 229.285156 214.027344 229.769531 C 214.039062 230.257812 214.09375 230.738281 214.195312 231.210938 C 214.300781 231.6875 214.449219 232.148438 214.640625 232.59375 C 214.832031 233.039062 215.066406 233.464844 215.34375 233.863281 C 215.617188 234.265625 215.929688 234.632812 216.277344 234.972656 C 216.625 235.3125 217.003906 235.617188 217.410156 235.882812 C 217.816406 236.148438 218.242188 236.375 218.695312 236.554688 C 219.144531 236.738281 219.609375 236.875 220.085938 236.96875 C 220.5625 237.0625 221.042969 237.105469 221.53125 237.105469 C 222.015625 237.101562 222.496094 237.054688 222.972656 236.957031 C 223.449219 236.863281 223.914062 236.722656 224.363281 236.535156 C 224.8125 236.351562 225.238281 236.125 225.644531 235.855469 C 226.046875 235.585938 226.421875 235.28125 226.769531 234.9375 C 227.113281 234.597656 227.421875 234.222656 227.695312 233.820312 C 227.96875 233.417969 228.199219 232.996094 228.390625 232.546875 C 228.578125 232.101562 228.722656 231.640625 228.824219 231.164062 L 237.777344 195.589844 C 237.960938 194.734375 238.058594 193.867188 238.066406 192.992188 C 238.078125 192.117188 238.003906 191.25 237.84375 190.390625 C 237.679688 189.53125 237.4375 188.695312 237.109375 187.882812 C 236.78125 187.070312 236.378906 186.300781 235.898438 185.570312 C 235.417969 184.835938 234.867188 184.160156 234.253906 183.539062 C 233.640625 182.914062 232.96875 182.359375 232.242188 181.867188 C 231.519531 181.378906 230.753906 180.964844 229.945312 180.628906 C 229.136719 180.289062 228.304688 180.035156 227.449219 179.863281 C 219.910156 178.347656 210.542969 176.519531 205.667969 175.574219 C 205.234375 175.488281 204.835938 175.324219 204.46875 175.078125 C 204.101562 174.828125 203.796875 174.519531 203.558594 174.148438 C 203.316406 173.777344 203.15625 173.375 203.082031 172.941406 C 203.003906 172.503906 203.015625 172.074219 203.113281 171.640625 L 207.664062 151.421875 L 216.179688 161.511719 C 216.894531 162.390625 217.699219 163.175781 218.59375 163.863281 C 219.488281 164.554688 220.449219 165.132812 221.476562 165.601562 C 222.503906 166.066406 223.574219 166.410156 224.683594 166.628906 C 225.792969 166.847656 226.910156 166.9375 228.039062 166.898438 L 245.835938 165.921875 C 246.757812 165.890625 247.625 165.664062 248.445312 165.242188 L 254.828125 200.753906 C 255.277344 203.265625 255.332031 205.785156 254.984375 208.316406 C 254.636719 210.84375 253.910156 213.257812 252.800781 215.554688 L 243.886719 234.023438 C 243.394531 235.042969 242.773438 235.972656 242.019531 236.8125 C 241.265625 237.65625 240.410156 238.378906 239.453125 238.976562 C 238.496094 239.578125 237.476562 240.035156 236.390625 240.347656 C 235.304688 240.660156 234.195312 240.816406 233.066406 240.816406 L 216.164062 240.816406 C 215.738281 240.816406 215.316406 240.792969 214.890625 240.746094 C 214.46875 240.699219 214.046875 240.628906 213.632812 240.535156 C 213.214844 240.441406 212.804688 240.324219 212.402344 240.1875 C 212 240.050781 211.605469 239.886719 211.21875 239.707031 C 210.835938 239.523438 210.460938 239.320312 210.097656 239.097656 C 209.734375 238.875 209.386719 238.632812 209.050781 238.371094 C 208.714844 238.109375 208.394531 237.828125 208.085938 237.53125 C 207.78125 237.234375 207.496094 236.917969 207.222656 236.589844 C 206.953125 236.261719 206.703125 235.917969 206.46875 235.558594 C 206.238281 235.203125 206.023438 234.835938 205.832031 234.453125 C 205.640625 234.074219 205.46875 233.683594 205.320312 233.285156 C 205.171875 232.882812 205.046875 232.476562 204.941406 232.0625 C 204.839844 231.652344 204.757812 231.234375 204.699219 230.8125 C 204.640625 230.386719 204.609375 229.964844 204.597656 229.539062 C 204.585938 229.113281 204.597656 228.6875 204.636719 228.261719 C 204.671875 227.835938 204.730469 227.414062 204.8125 226.996094 L 209.265625 204.511719 L 145.269531 204.511719 C 144.371094 204.507812 143.539062 204.742188 142.777344 205.214844 C 142.175781 205.589844 141.367188 206.109375 140.40625 206.773438 C 139.871094 207.140625 139.28125 207.328125 138.632812 207.332031 L 111.277344 207.332031 C 110.839844 207.332031 110.417969 207.414062 110.011719 207.582031 C 109.609375 207.75 109.25 207.988281 108.941406 208.296875 C 108.632812 208.609375 108.394531 208.964844 108.226562 209.371094 C 108.058594 209.773438 107.976562 210.195312 107.976562 210.632812 C 107.976562 211.070312 108.058594 211.492188 108.226562 211.894531 C 108.394531 212.300781 108.632812 212.65625 108.941406 212.96875 C 109.25 213.277344 109.609375 213.515625 110.011719 213.683594 C 110.417969 213.851562 110.839844 213.933594 111.277344 213.933594 L 142.523438 213.933594 C 142.960938 213.933594 143.378906 214.019531 143.785156 214.1875 C 144.191406 214.355469 144.546875 214.59375 144.855469 214.902344 C 145.167969 215.210938 145.40625 215.570312 145.574219 215.972656 C 145.738281 216.378906 145.824219 216.796875 145.824219 217.238281 C 145.824219 217.675781 145.738281 218.09375 145.574219 218.5 C 145.40625 218.90625 145.167969 219.261719 144.855469 219.570312 C 144.546875 219.882812 144.191406 220.121094 143.785156 220.289062 C 143.378906 220.453125 142.960938 220.539062 142.523438 220.539062 L 63.761719 220.539062 C 63.324219 220.539062 62.902344 220.621094 62.5 220.789062 C 62.09375 220.957031 61.738281 221.195312 61.425781 221.503906 C 61.117188 221.816406 60.878906 222.171875 60.710938 222.578125 C 60.542969 222.980469 60.460938 223.402344 60.460938 223.839844 C 60.460938 224.277344 60.542969 224.699219 60.710938 225.105469 C 60.878906 225.507812 61.117188 225.867188 61.425781 226.175781 C 61.738281 226.484375 62.09375 226.722656 62.5 226.890625 C 62.902344 227.058594 63.324219 227.140625 63.761719 227.140625 L 126.835938 227.140625 C 127.273438 227.136719 127.699219 227.21875 128.109375 227.382812 C 128.515625 227.550781 128.878906 227.789062 129.191406 228.097656 C 129.503906 228.40625 129.746094 228.765625 129.914062 229.171875 C 130.085938 229.578125 130.167969 230.003906 130.167969 230.445312 C 130.167969 230.886719 130.085938 231.308594 129.914062 231.714844 C 129.746094 232.121094 129.503906 232.480469 129.191406 232.789062 C 128.878906 233.101562 128.515625 233.339844 128.109375 233.503906 C 127.699219 233.667969 127.273438 233.75 126.835938 233.746094 L 86.390625 233.746094 C 85.953125 233.746094 85.53125 233.828125 85.125 233.996094 C 84.722656 234.164062 84.363281 234.402344 84.054688 234.714844 C 83.746094 235.023438 83.507812 235.378906 83.339844 235.785156 C 83.171875 236.1875 83.085938 236.609375 83.085938 237.046875 C 83.085938 237.484375 83.171875 237.90625 83.339844 238.3125 C 83.507812 238.714844 83.746094 239.074219 84.054688 239.382812 C 84.363281 239.691406 84.722656 239.929688 85.125 240.097656 C 85.53125 240.265625 85.953125 240.351562 86.390625 240.351562 L 113.691406 240.351562 C 111.699219 246.070312 110.707031 251.957031 110.707031 258.011719 L 121.453125 258.011719 C 121.453125 258.074219 121.441406 258.136719 121.441406 258.203125 C 121.441406 258.945312 121.488281 259.671875 121.550781 260.394531 C 121.800781 263.414062 122.5625 266.300781 123.839844 269.046875 C 125.113281 271.796875 126.824219 274.242188 128.96875 276.382812 C 129.65625 277.078125 130.382812 277.734375 131.148438 278.347656 C 131.910156 278.960938 132.707031 279.527344 133.535156 280.046875 C 134.363281 280.570312 135.21875 281.042969 136.101562 281.464844 C 136.984375 281.886719 137.886719 282.257812 138.8125 282.578125 C 139.738281 282.898438 140.679688 283.164062 141.636719 283.375 C 142.589844 283.585938 143.554688 283.742188 144.53125 283.84375 C 145.503906 283.945312 146.480469 283.988281 147.457031 283.976562 C 148.4375 283.964844 149.414062 283.898438 150.382812 283.773438 C 151.355469 283.652344 152.316406 283.472656 153.265625 283.238281 C 154.21875 283.003906 155.152344 282.71875 156.070312 282.375 C 156.988281 282.035156 157.882812 281.644531 158.753906 281.199219 C 159.625 280.753906 160.472656 280.261719 161.285156 279.722656 C 162.101562 279.179688 162.886719 278.59375 163.632812 277.964844 C 164.382812 277.335938 165.09375 276.664062 165.765625 275.949219 C 166.4375 275.238281 167.066406 274.488281 167.652344 273.707031 C 168.234375 272.921875 168.773438 272.105469 169.265625 271.257812 C 169.5625 270.757812 169.84375 270.25 170.105469 269.726562 C 171.589844 266.785156 172.46875 263.675781 172.746094 260.394531 C 172.808594 259.671875 172.855469 258.945312 172.855469 258.203125 C 172.855469 258.140625 172.84375 258.078125 172.84375 258.011719 L 235.589844 258.011719 C 237.113281 257.996094 238.617188 257.796875 240.097656 257.425781 C 241.578125 257.050781 242.996094 256.507812 244.347656 255.796875 C 245.699219 255.085938 246.949219 254.230469 248.097656 253.222656 C 249.246094 252.214844 250.261719 251.089844 251.144531 249.839844 L 252.214844 248.285156 C 251.984375 250.640625 251.984375 252.996094 252.214844 255.355469 C 252.316406 256.382812 252.484375 257.390625 252.667969 258.390625 C 253.238281 261.449219 254.183594 264.382812 255.511719 267.199219 C 255.957031 267.003906 256.382812 266.777344 256.789062 266.519531 C 257.4375 266.121094 258.046875 265.671875 258.625 265.175781 C 259.410156 264.507812 260.121094 263.773438 260.765625 262.96875 C 261.140625 262.5 261.492188 262.007812 261.816406 261.5 C 262.242188 260.832031 262.617188 260.160156 262.972656 259.492188 C 266.6875 252.492188 267.09375 245.375 274.917969 237.644531 C 275.921875 236.652344 277 235.746094 278.160156 234.9375 Z M 161.328125 258.203125 C 161.316406 259.125 161.210938 260.039062 161.019531 260.941406 C 160.832031 261.84375 160.554688 262.71875 160.191406 263.570312 C 159.828125 264.417969 159.386719 265.222656 158.867188 265.984375 C 158.347656 266.746094 157.761719 267.453125 157.105469 268.101562 C 156.445312 268.75 155.734375 269.328125 154.964844 269.835938 C 154.195312 270.34375 153.382812 270.773438 152.527344 271.121094 C 151.675781 271.472656 150.796875 271.738281 149.890625 271.914062 C 148.984375 272.09375 148.070312 272.183594 147.148438 272.183594 C 146.226562 272.183594 145.3125 272.09375 144.40625 271.914062 C 143.5 271.738281 142.621094 271.472656 141.769531 271.121094 C 140.914062 270.773438 140.101562 270.34375 139.332031 269.835938 C 138.5625 269.328125 137.847656 268.75 137.191406 268.101562 C 136.535156 267.453125 135.945312 266.746094 135.429688 265.984375 C 134.910156 265.222656 134.46875 264.417969 134.105469 263.570312 C 133.742188 262.71875 133.464844 261.84375 133.273438 260.941406 C 133.082031 260.039062 132.980469 259.125 132.96875 258.203125 C 132.96875 258.140625 132.988281 258.078125 132.988281 258.011719 L 161.308594 258.011719 C 161.308594 258.078125 161.328125 258.140625 161.328125 258.203125 Z M 194.960938 117.964844 C 194.609375 115.316406 193.90625 109.746094 193.972656 108.289062 C 194.445312 98.132812 201.539062 90.207031 213.21875 90.75 C 214.195312 90.796875 215.164062 90.917969 216.121094 91.117188 C 217.078125 91.316406 218.011719 91.59375 218.925781 91.941406 C 219.839844 92.289062 220.71875 92.707031 221.566406 93.195312 C 222.414062 93.683594 223.214844 94.234375 223.972656 94.851562 C 224.734375 95.46875 225.4375 96.140625 226.089844 96.867188 C 226.742188 97.597656 227.332031 98.371094 227.859375 99.195312 C 228.390625 100.015625 228.847656 100.875 229.242188 101.773438 C 229.632812 102.667969 229.949219 103.589844 230.195312 104.535156 L 212.308594 103.703125 C 212.0625 103.691406 211.824219 103.726562 211.59375 103.8125 C 211.363281 103.894531 211.15625 104.019531 210.972656 104.183594 C 210.792969 104.351562 210.648438 104.546875 210.542969 104.769531 C 210.4375 104.992188 210.382812 105.222656 210.371094 105.46875 L 210.089844 111.523438 C 210.074219 111.804688 210.109375 112.082031 210.183594 112.351562 C 210.261719 112.625 210.382812 112.875 210.542969 113.105469 C 210.703125 113.339844 210.894531 113.539062 211.121094 113.707031 C 211.347656 113.875 211.59375 114.003906 211.863281 114.089844 L 229.453125 119.8125 C 228.34375 123.089844 226.746094 126.105469 224.65625 128.855469 C 224.496094 129.0625 224.308594 129.242188 224.09375 129.386719 C 223.878906 129.535156 223.648438 129.640625 223.398438 129.714844 C 223.144531 129.785156 222.890625 129.8125 222.628906 129.800781 C 222.371094 129.789062 222.121094 129.738281 221.875 129.644531 L 196.484375 119.894531 C 196.074219 119.738281 195.730469 119.488281 195.457031 119.140625 C 195.183594 118.796875 195.019531 118.402344 194.960938 117.964844 Z M 92.769531 156.28125 L 60.375 156.28125 C 60.144531 156.28125 59.917969 156.257812 59.691406 156.210938 C 59.464844 156.160156 59.246094 156.089844 59.035156 155.996094 C 58.824219 155.902344 58.625 155.789062 58.4375 155.652344 C 58.25 155.515625 58.078125 155.363281 57.925781 155.191406 C 57.769531 155.019531 57.632812 154.832031 57.519531 154.632812 C 57.402344 154.433594 57.308594 154.222656 57.238281 154.003906 C 57.164062 153.785156 57.117188 153.558594 57.09375 153.328125 C 57.066406 153.097656 57.066406 152.867188 57.089844 152.640625 C 57.261719 150.921875 58.835938 149.679688 60.566406 149.679688 L 101.234375 149.679688 C 101.464844 149.679688 101.695312 149.652344 101.921875 149.605469 C 102.148438 149.558594 102.367188 149.488281 102.578125 149.394531 C 102.789062 149.300781 102.988281 149.183594 103.175781 149.046875 C 103.359375 148.914062 103.53125 148.757812 103.6875 148.585938 C 103.84375 148.414062 103.976562 148.230469 104.09375 148.03125 C 104.207031 147.828125 104.300781 147.621094 104.375 147.398438 C 104.445312 147.179688 104.492188 146.953125 104.519531 146.726562 C 104.542969 146.496094 104.542969 146.265625 104.519531 146.035156 C 104.347656 144.316406 102.773438 143.074219 101.046875 143.074219 L 68.460938 143.074219 C 68.023438 143.074219 67.605469 142.992188 67.199219 142.824219 C 66.792969 142.65625 66.4375 142.417969 66.128906 142.105469 C 65.820312 141.796875 65.578125 141.441406 65.414062 141.035156 C 65.246094 140.632812 65.160156 140.210938 65.160156 139.773438 C 65.160156 139.335938 65.246094 138.914062 65.414062 138.507812 C 65.578125 138.105469 65.820312 137.746094 66.128906 137.4375 C 66.4375 137.128906 66.792969 136.890625 67.199219 136.722656 C 67.605469 136.554688 68.023438 136.46875 68.460938 136.46875 L 101.234375 136.46875 C 101.464844 136.46875 101.695312 136.445312 101.921875 136.398438 C 102.148438 136.351562 102.367188 136.28125 102.578125 136.183594 C 102.789062 136.089844 102.988281 135.976562 103.175781 135.839844 C 103.359375 135.703125 103.53125 135.550781 103.6875 135.378906 C 103.84375 135.207031 103.976562 135.023438 104.09375 134.820312 C 104.207031 134.621094 104.300781 134.410156 104.375 134.191406 C 104.445312 133.972656 104.492188 133.746094 104.519531 133.519531 C 104.542969 133.289062 104.542969 133.058594 104.519531 132.828125 C 104.347656 131.109375 102.773438 129.867188 101.046875 129.867188 L 78.277344 129.867188 C 78.046875 129.867188 77.820312 129.84375 77.59375 129.792969 C 77.367188 129.746094 77.148438 129.675781 76.9375 129.582031 C 76.726562 129.488281 76.527344 129.371094 76.339844 129.238281 C 76.152344 129.101562 75.980469 128.949219 75.824219 128.777344 C 75.671875 128.605469 75.535156 128.417969 75.421875 128.21875 C 75.304688 128.019531 75.210938 127.808594 75.140625 127.589844 C 75.066406 127.367188 75.019531 127.144531 74.996094 126.914062 C 74.96875 126.683594 74.96875 126.453125 74.992188 126.222656 C 75.164062 124.503906 76.738281 123.261719 78.464844 123.261719 L 92.769531 123.261719 L 92.769531 119.46875 C 92.769531 119.035156 92.851562 118.617188 93.015625 118.21875 C 93.183594 117.816406 93.417969 117.464844 93.726562 117.15625 C 94.03125 116.851562 94.386719 116.613281 94.789062 116.449219 C 95.1875 116.28125 95.605469 116.199219 96.039062 116.199219 L 169.101562 116.199219 C 169.535156 116.199219 169.953125 116.28125 170.355469 116.449219 C 170.753906 116.613281 171.109375 116.851562 171.414062 117.15625 C 171.722656 117.464844 171.957031 117.816406 172.125 118.21875 C 172.289062 118.617188 172.371094 119.035156 172.371094 119.46875 L 172.371094 183.273438 C 172.371094 183.574219 172.34375 183.871094 172.285156 184.167969 C 172.226562 184.460938 172.140625 184.75 172.023438 185.027344 C 171.910156 185.304688 171.769531 185.566406 171.601562 185.816406 C 171.433594 186.066406 171.246094 186.300781 171.03125 186.511719 C 170.820312 186.722656 170.589844 186.914062 170.339844 187.082031 C 170.089844 187.246094 169.824219 187.390625 169.546875 187.503906 C 169.269531 187.617188 168.984375 187.707031 168.6875 187.765625 C 168.394531 187.824219 168.097656 187.851562 167.796875 187.851562 L 96.039062 187.851562 C 95.605469 187.851562 95.1875 187.769531 94.789062 187.601562 C 94.386719 187.4375 94.03125 187.199219 93.726562 186.894531 C 93.417969 186.585938 93.183594 186.234375 93.015625 185.832031 C 92.851562 185.433594 92.769531 185.015625 92.769531 184.582031 L 92.769531 162.886719 L 101.234375 162.886719 C 101.464844 162.886719 101.695312 162.863281 101.921875 162.8125 C 102.148438 162.765625 102.367188 162.695312 102.578125 162.601562 C 102.789062 162.507812 102.988281 162.390625 103.175781 162.257812 C 103.359375 162.121094 103.53125 161.964844 103.6875 161.792969 C 103.839844 161.625 103.976562 161.4375 104.09375 161.238281 C 104.207031 161.039062 104.300781 160.828125 104.375 160.609375 C 104.445312 160.386719 104.492188 160.164062 104.519531 159.933594 C 104.542969 159.703125 104.542969 159.472656 104.519531 159.242188 C 104.347656 157.523438 102.773438 156.28125 101.046875 156.28125 Z M 92.769531 156.28125 " fill-opacity="1" fill-rule="nonzero"/></g></svg>