<svg xmlns="http://www.w3.org/2000/svg" xmlns:xlink="http://www.w3.org/1999/xlink" width="500" zoomAndPan="magnify" viewBox="0 0 375 374.999991" height="500" preserveAspectRatio="xMidYMid meet" version="1.0"><defs><clipPath id="f1c835a8c0"><path d="M 37.5 76 L 337.5 76 L 337.5 299 L 37.5 299 Z M 37.5 76 " clip-rule="nonzero"/></clipPath></defs><g clip-path="url(#f1c835a8c0)"><path fill="#000000" d="M 333.519531 251.445312 C 332.597656 249.746094 331.535156 248.144531 330.320312 246.640625 C 329.105469 245.136719 327.765625 243.753906 326.300781 242.496094 C 324.832031 241.242188 323.261719 240.128906 321.589844 239.15625 C 319.917969 238.1875 318.171875 237.378906 316.351562 236.730469 C 313.542969 237.570312 310.691406 238.242188 307.804688 238.75 C 301.402344 239.984375 295.355469 241.152344 289.617188 246.820312 C 283.863281 252.5 281.878906 257.75 279.78125 263.308594 C 278.488281 266.730469 277.152344 270.269531 274.902344 273.800781 C 275.222656 275.554688 275.734375 277.253906 276.4375 278.894531 C 277 280.246094 277.652344 281.550781 278.394531 282.8125 C 279.140625 284.074219 279.96875 285.277344 280.878906 286.425781 C 281.789062 287.570312 282.773438 288.648438 283.835938 289.65625 C 284.894531 290.667969 286.019531 291.597656 287.210938 292.449219 C 288.402344 293.304688 289.644531 294.070312 290.941406 294.75 C 292.238281 295.429688 293.574219 296.015625 294.953125 296.511719 C 296.332031 297.003906 297.738281 297.398438 299.171875 297.699219 C 300.605469 297.996094 302.050781 298.195312 303.511719 298.292969 C 304.972656 298.390625 306.433594 298.382812 307.894531 298.277344 C 309.355469 298.171875 310.800781 297.964844 312.234375 297.660156 C 313.664062 297.351562 315.066406 296.949219 316.441406 296.445312 C 317.820312 295.945312 319.152344 295.347656 320.445312 294.660156 C 321.738281 293.972656 322.976562 293.199219 324.160156 292.339844 C 325.347656 291.480469 326.464844 290.542969 327.519531 289.527344 C 328.578125 288.511719 329.554688 287.429688 330.460938 286.277344 C 331.363281 285.125 332.183594 283.917969 332.921875 282.652344 C 333.285156 282.035156 333.628906 281.40625 333.953125 280.761719 C 335.78125 277.136719 336.867188 273.300781 337.210938 269.257812 C 337.285156 268.363281 337.347656 267.46875 337.347656 266.554688 C 337.351562 263.917969 337.027344 261.316406 336.378906 258.761719 C 335.730469 256.203125 334.777344 253.765625 333.519531 251.445312 Z M 322.488281 271.003906 C 322.292969 271.699219 322.050781 272.382812 321.773438 273.046875 C 321.492188 273.714844 321.167969 274.359375 320.804688 274.984375 C 320.445312 275.609375 320.042969 276.210938 319.605469 276.785156 C 319.167969 277.363281 318.695312 277.90625 318.191406 278.421875 C 317.683594 278.9375 317.148438 279.421875 316.582031 279.871094 C 316.011719 280.320312 315.421875 280.730469 314.800781 281.105469 C 314.183594 281.476562 313.542969 281.8125 312.882812 282.105469 C 312.222656 282.398438 311.546875 282.652344 310.855469 282.859375 C 310.164062 283.070312 309.460938 283.234375 308.746094 283.355469 C 308.035156 283.476562 307.316406 283.550781 306.59375 283.582031 C 305.871094 283.609375 305.152344 283.597656 304.429688 283.535156 C 303.710938 283.476562 302.996094 283.371094 302.289062 283.222656 C 301.582031 283.070312 300.886719 282.878906 300.203125 282.640625 C 299.523438 282.402344 298.855469 282.125 298.207031 281.804688 C 297.5625 281.484375 296.9375 281.125 296.332031 280.722656 C 295.730469 280.324219 295.15625 279.890625 294.605469 279.417969 C 294.058594 278.945312 293.542969 278.441406 293.058594 277.90625 C 292.574219 277.371094 292.125 276.804688 291.710938 276.210938 C 291.296875 275.621094 290.921875 275.003906 290.585938 274.363281 C 290.25 273.722656 289.953125 273.066406 289.703125 272.386719 C 289.449219 271.710938 289.238281 271.019531 289.070312 270.316406 C 288.902344 269.613281 288.78125 268.902344 288.703125 268.183594 C 288.625 267.464844 288.59375 266.746094 288.605469 266.023438 C 288.621094 265.300781 288.679688 264.578125 288.78125 263.863281 C 288.886719 263.148438 289.03125 262.441406 289.226562 261.746094 C 289.417969 261.050781 289.652344 260.367188 289.929688 259.699219 C 290.207031 259.03125 290.527344 258.382812 290.886719 257.757812 C 291.242188 257.128906 291.640625 256.527344 292.074219 255.949219 C 292.511719 255.371094 292.980469 254.824219 293.484375 254.304688 C 293.988281 253.789062 294.519531 253.300781 295.085938 252.851562 C 295.648438 252.398438 296.242188 251.984375 296.855469 251.609375 C 297.472656 251.230469 298.113281 250.894531 298.769531 250.59375 C 299.429688 250.296875 300.105469 250.042969 300.796875 249.832031 C 301.488281 249.617188 302.1875 249.449219 302.898438 249.328125 C 303.613281 249.203125 304.328125 249.121094 305.050781 249.089844 C 305.773438 249.054688 306.496094 249.066406 307.214844 249.121094 C 307.9375 249.179688 308.652344 249.28125 309.359375 249.425781 C 310.066406 249.570312 310.761719 249.761719 311.445312 249.996094 C 312.132812 250.230469 312.796875 250.503906 313.445312 250.820312 C 314.097656 251.140625 314.722656 251.496094 315.328125 251.890625 C 315.933594 252.289062 316.511719 252.722656 317.0625 253.191406 C 317.609375 253.660156 318.128906 254.160156 318.617188 254.695312 C 319.105469 255.226562 319.558594 255.789062 319.972656 256.378906 C 320.390625 256.972656 320.769531 257.585938 321.109375 258.222656 C 321.449219 258.863281 321.746094 259.519531 322.003906 260.195312 C 322.261719 260.871094 322.472656 261.558594 322.644531 262.261719 C 322.816406 262.964844 322.941406 263.675781 323.023438 264.394531 C 323.101562 265.109375 323.140625 265.832031 323.128906 266.554688 C 323.109375 268.066406 322.894531 269.550781 322.488281 271.003906 Z M 291.644531 241.996094 C 293.414062 240.761719 295.304688 239.757812 297.320312 238.976562 C 297.957031 238.730469 298.59375 238.503906 299.234375 238.296875 C 301.792969 237.527344 304.386719 236.914062 307.019531 236.453125 C 307.675781 236.328125 308.332031 236.199219 308.992188 236.070312 C 309.921875 235.886719 310.851562 235.6875 311.785156 235.472656 C 312.183594 235.382812 312.578125 235.296875 312.976562 235.199219 C 315.050781 234.695312 317.070312 234.03125 319.039062 233.199219 C 320.320312 232.652344 321.558594 232.019531 322.753906 231.300781 C 323.265625 230.992188 323.722656 230.691406 324.132812 230.402344 C 325.214844 229.691406 326.175781 228.839844 327.015625 227.855469 C 324.378906 225.898438 321.53125 224.316406 318.476562 223.117188 C 318.222656 223.015625 317.972656 222.910156 317.71875 222.808594 C 316.355469 222.289062 314.964844 221.839844 313.550781 221.464844 C 313.28125 221.390625 313.007812 221.328125 312.734375 221.261719 C 311.246094 220.890625 309.746094 220.605469 308.226562 220.402344 C 306.664062 220.214844 305.09375 220.117188 303.523438 220.101562 C 303.222656 220.097656 302.921875 220.085938 302.621094 220.089844 C 301.382812 220.097656 300.140625 220.148438 298.886719 220.273438 C 293.832031 220.78125 289.039062 222.175781 284.5 224.460938 L 287.105469 220.683594 L 288.382812 218.828125 C 288.992188 217.941406 289.488281 217 289.867188 215.996094 C 290.246094 214.992188 290.5 213.957031 290.628906 212.894531 C 290.753906 211.828125 290.753906 210.761719 290.621094 209.699219 C 290.492188 208.632812 290.234375 207.597656 289.851562 206.597656 L 272.855469 162.027344 L 283.332031 163.695312 C 283.597656 163.734375 283.863281 163.75 284.132812 163.734375 C 284.402344 163.71875 284.664062 163.671875 284.925781 163.601562 C 285.183594 163.527344 285.429688 163.425781 285.667969 163.300781 C 285.90625 163.175781 286.125 163.023438 286.332031 162.847656 C 286.535156 162.671875 286.71875 162.480469 286.882812 162.265625 C 287.042969 162.050781 287.183594 161.820312 287.292969 161.578125 C 287.40625 161.332031 287.492188 161.078125 287.550781 160.816406 C 287.609375 160.554688 287.636719 160.289062 287.636719 160.019531 L 287.636719 140.453125 C 287.636719 140.183594 287.609375 139.917969 287.550781 139.65625 C 287.492188 139.390625 287.40625 139.140625 287.292969 138.894531 C 287.183594 138.648438 287.042969 138.421875 286.882812 138.207031 C 286.71875 137.992188 286.535156 137.796875 286.332031 137.621094 C 286.125 137.449219 285.90625 137.296875 285.667969 137.171875 C 285.429688 137.042969 285.183594 136.945312 284.925781 136.871094 C 284.664062 136.796875 284.402344 136.753906 284.132812 136.738281 C 283.863281 136.722656 283.597656 136.734375 283.332031 136.777344 L 259.308594 140.597656 C 258.796875 140.679688 258.3125 140.847656 257.859375 141.101562 C 257.40625 141.355469 257.011719 141.679688 256.675781 142.078125 C 256.339844 142.472656 256.078125 142.914062 255.898438 143.402344 C 255.71875 143.886719 255.628906 144.390625 255.628906 144.910156 L 255.628906 148.519531 C 255.265625 148.441406 254.894531 148.394531 254.519531 148.375 L 235.371094 148.128906 C 234.726562 148.105469 234.113281 147.949219 233.535156 147.664062 C 232.953125 147.375 232.460938 146.980469 232.050781 146.480469 L 214.71875 125.125 C 205.128906 113.371094 188.765625 117.03125 185.683594 131.882812 L 176.675781 165.753906 C 176.53125 166.441406 176.417969 167.136719 176.339844 167.835938 C 176.261719 168.535156 176.214844 169.234375 176.199219 169.9375 C 176.183594 170.640625 176.203125 171.34375 176.253906 172.046875 C 176.304688 172.746094 176.386719 173.445312 176.5 174.140625 C 176.617188 174.832031 176.765625 175.519531 176.945312 176.203125 C 177.121094 176.882812 177.332031 177.550781 177.574219 178.214844 C 177.816406 178.875 178.085938 179.523438 178.390625 180.15625 C 178.691406 180.792969 179.019531 181.414062 179.378906 182.019531 C 179.738281 182.625 180.125 183.210938 180.539062 183.78125 C 180.953125 184.347656 181.390625 184.898438 181.855469 185.425781 C 182.320312 185.953125 182.808594 186.460938 183.320312 186.945312 C 183.832031 187.425781 184.363281 187.886719 184.917969 188.320312 C 185.472656 188.753906 186.042969 189.160156 186.636719 189.539062 C 187.226562 189.921875 187.835938 190.273438 188.460938 190.597656 C 189.085938 190.921875 189.722656 191.214844 190.375 191.480469 C 191.027344 191.746094 191.6875 191.980469 192.363281 192.183594 L 136.710938 192.183594 C 136.4375 192.183594 136.171875 192.234375 135.921875 192.339844 C 135.667969 192.445312 135.445312 192.59375 135.253906 192.789062 C 135.0625 192.980469 134.910156 193.203125 134.808594 193.457031 C 134.703125 193.707031 134.652344 193.972656 134.652344 194.242188 L 134.652344 201.988281 C 134.652344 202.261719 134.703125 202.523438 134.808594 202.773438 C 134.914062 203.027344 135.0625 203.25 135.253906 203.441406 C 135.449219 203.636719 135.667969 203.785156 135.921875 203.890625 C 136.175781 203.992188 136.4375 204.046875 136.710938 204.046875 L 213.855469 204.046875 C 214.125 204.046875 214.390625 203.996094 214.640625 203.890625 C 214.894531 203.785156 215.117188 203.636719 215.308594 203.445312 C 215.503906 203.25 215.652344 203.027344 215.757812 202.777344 C 215.863281 202.523438 215.914062 202.261719 215.914062 201.988281 L 215.914062 195.859375 L 226.433594 197.371094 L 218.109375 234.398438 C 218.011719 234.949219 217.96875 235.503906 217.976562 236.0625 C 217.988281 236.621094 218.054688 237.171875 218.171875 237.714844 C 218.289062 238.261719 218.460938 238.792969 218.683594 239.304688 C 218.902344 239.816406 219.171875 240.300781 219.488281 240.761719 C 219.804688 241.222656 220.164062 241.648438 220.5625 242.039062 C 220.960938 242.429688 221.394531 242.777344 221.863281 243.082031 C 222.328125 243.386719 222.820312 243.644531 223.339844 243.855469 C 223.855469 244.066406 224.386719 244.222656 224.9375 244.328125 C 225.484375 244.433594 226.039062 244.488281 226.597656 244.484375 C 227.15625 244.484375 227.707031 244.425781 228.253906 244.316406 C 228.800781 244.207031 229.332031 244.046875 229.851562 243.832031 C 230.367188 243.621094 230.855469 243.359375 231.320312 243.050781 C 231.785156 242.742188 232.21875 242.390625 232.613281 241.996094 C 233.011719 241.605469 233.363281 241.175781 233.679688 240.714844 C 233.992188 240.253906 234.257812 239.765625 234.476562 239.25 C 234.695312 238.738281 234.859375 238.207031 234.976562 237.660156 L 245.261719 196.796875 C 245.46875 195.8125 245.582031 194.820312 245.59375 193.816406 C 245.605469 192.808594 245.519531 191.8125 245.332031 190.824219 C 245.148438 189.835938 244.867188 188.875 244.492188 187.945312 C 244.113281 187.011719 243.652344 186.125 243.097656 185.285156 C 242.546875 184.445312 241.917969 183.667969 241.210938 182.953125 C 240.503906 182.238281 239.734375 181.597656 238.902344 181.035156 C 238.070312 180.472656 237.191406 179.996094 236.261719 179.609375 C 235.335938 179.222656 234.378906 178.929688 233.394531 178.730469 C 224.734375 176.988281 213.972656 174.890625 208.375 173.804688 C 208.128906 173.757812 207.890625 173.683594 207.65625 173.589844 C 207.425781 173.492188 207.203125 173.375 206.996094 173.234375 C 206.789062 173.09375 206.597656 172.933594 206.417969 172.753906 C 206.242188 172.574219 206.085938 172.378906 205.949219 172.167969 C 205.8125 171.957031 205.699219 171.734375 205.605469 171.5 C 205.515625 171.269531 205.445312 171.027344 205.402344 170.78125 C 205.359375 170.53125 205.339844 170.285156 205.347656 170.03125 C 205.351562 169.78125 205.382812 169.53125 205.441406 169.289062 L 210.667969 146.0625 L 220.453125 157.652344 C 221.269531 158.660156 222.191406 159.5625 223.21875 160.355469 C 224.25 161.148438 225.351562 161.8125 226.535156 162.347656 C 227.714844 162.886719 228.945312 163.277344 230.21875 163.53125 C 231.492188 163.78125 232.777344 163.886719 234.074219 163.839844 L 254.519531 162.71875 C 255.574219 162.679688 256.574219 162.421875 257.515625 161.9375 L 264.84375 202.730469 C 265.363281 205.617188 265.421875 208.511719 265.023438 211.414062 C 264.628906 214.320312 263.792969 217.089844 262.519531 219.730469 L 252.277344 240.949219 C 251.710938 242.117188 250.996094 243.183594 250.132812 244.152344 C 249.265625 245.117188 248.285156 245.949219 247.183594 246.636719 C 246.085938 247.328125 244.914062 247.851562 243.664062 248.210938 C 242.417969 248.570312 241.148438 248.75 239.847656 248.75 L 220.433594 248.75 C 219.945312 248.75 219.457031 248.722656 218.96875 248.667969 C 218.484375 248.613281 218 248.535156 217.523438 248.425781 C 217.046875 248.320312 216.574219 248.1875 216.113281 248.027344 C 215.648438 247.867188 215.195312 247.683594 214.753906 247.472656 C 214.308594 247.265625 213.878906 247.03125 213.464844 246.773438 C 213.046875 246.519531 212.644531 246.238281 212.257812 245.9375 C 211.875 245.636719 211.503906 245.316406 211.152344 244.972656 C 210.804688 244.632812 210.472656 244.273438 210.164062 243.894531 C 209.851562 243.515625 209.5625 243.121094 209.296875 242.710938 C 209.027344 242.300781 208.785156 241.878906 208.5625 241.441406 C 208.34375 241.003906 208.148438 240.554688 207.976562 240.097656 C 207.804688 239.636719 207.660156 239.171875 207.542969 238.695312 C 207.421875 238.21875 207.328125 237.742188 207.261719 237.253906 C 207.195312 236.769531 207.15625 236.285156 207.144531 235.792969 C 207.132812 235.304688 207.148438 234.816406 207.1875 234.328125 C 207.230469 233.839844 207.296875 233.355469 207.394531 232.875 L 212.503906 207.042969 L 138.992188 207.042969 C 137.960938 207.042969 137.007812 207.3125 136.128906 207.855469 C 135.441406 208.285156 134.511719 208.882812 133.40625 209.640625 C 132.792969 210.066406 132.117188 210.28125 131.371094 210.285156 L 99.945312 210.285156 C 99.445312 210.285156 98.960938 210.378906 98.496094 210.574219 C 98.03125 210.765625 97.621094 211.039062 97.265625 211.394531 C 96.910156 211.75 96.636719 212.160156 96.441406 212.625 C 96.25 213.089844 96.152344 213.574219 96.152344 214.078125 C 96.152344 214.582031 96.25 215.0625 96.441406 215.527344 C 96.636719 215.992188 96.910156 216.402344 97.265625 216.757812 C 97.621094 217.113281 98.03125 217.390625 98.496094 217.582031 C 98.960938 217.773438 99.445312 217.871094 99.945312 217.871094 L 135.839844 217.871094 C 136.339844 217.871094 136.824219 217.964844 137.289062 218.160156 C 137.753906 218.351562 138.164062 218.625 138.519531 218.980469 C 138.875 219.335938 139.148438 219.746094 139.34375 220.210938 C 139.535156 220.675781 139.632812 221.160156 139.632812 221.664062 C 139.632812 222.164062 139.535156 222.648438 139.34375 223.113281 C 139.148438 223.578125 138.875 223.988281 138.519531 224.34375 C 138.164062 224.699219 137.753906 224.976562 137.289062 225.167969 C 136.824219 225.359375 136.339844 225.457031 135.839844 225.457031 L 45.367188 225.457031 C 44.863281 225.457031 44.378906 225.550781 43.914062 225.746094 C 43.449219 225.9375 43.039062 226.210938 42.683594 226.566406 C 42.328125 226.921875 42.054688 227.332031 41.863281 227.796875 C 41.667969 228.261719 41.574219 228.746094 41.574219 229.25 C 41.574219 229.75 41.667969 230.234375 41.863281 230.699219 C 42.054688 231.164062 42.328125 231.574219 42.683594 231.929688 C 43.039062 232.285156 43.449219 232.5625 43.914062 232.753906 C 44.378906 232.945312 44.863281 233.042969 45.367188 233.042969 L 117.816406 233.042969 C 118.324219 233.035156 118.8125 233.128906 119.28125 233.320312 C 119.75 233.511719 120.164062 233.78125 120.523438 234.140625 C 120.882812 234.496094 121.160156 234.90625 121.355469 235.375 C 121.550781 235.839844 121.648438 236.328125 121.648438 236.835938 C 121.648438 237.339844 121.550781 237.828125 121.355469 238.292969 C 121.160156 238.761719 120.882812 239.171875 120.523438 239.53125 C 120.164062 239.886719 119.75 240.160156 119.28125 240.347656 C 118.8125 240.539062 118.324219 240.632812 117.816406 240.628906 L 71.359375 240.628906 C 70.855469 240.628906 70.371094 240.722656 69.90625 240.917969 C 69.441406 241.109375 69.03125 241.382812 68.675781 241.738281 C 68.320312 242.09375 68.046875 242.503906 67.855469 242.96875 C 67.660156 243.433594 67.566406 243.917969 67.566406 244.421875 C 67.566406 244.921875 67.660156 245.40625 67.855469 245.871094 C 68.046875 246.335938 68.320312 246.746094 68.675781 247.101562 C 69.03125 247.457031 69.441406 247.730469 69.90625 247.925781 C 70.371094 248.117188 70.855469 248.214844 71.359375 248.214844 L 102.722656 248.214844 C 100.433594 254.78125 99.292969 261.546875 99.292969 268.503906 L 111.636719 268.503906 C 111.636719 268.574219 111.621094 268.648438 111.621094 268.722656 C 111.621094 269.574219 111.679688 270.40625 111.75 271.238281 C 112.035156 274.707031 112.910156 278.023438 114.378906 281.179688 C 115.84375 284.335938 117.808594 287.144531 120.269531 289.605469 C 121.0625 290.402344 121.894531 291.15625 122.773438 291.859375 C 123.648438 292.5625 124.5625 293.214844 125.515625 293.816406 C 126.464844 294.414062 127.449219 294.957031 128.464844 295.441406 C 129.476562 295.929688 130.515625 296.355469 131.578125 296.722656 C 132.640625 297.089844 133.722656 297.394531 134.820312 297.636719 C 135.917969 297.878906 137.027344 298.058594 138.144531 298.175781 C 139.261719 298.289062 140.386719 298.339844 141.507812 298.328125 C 142.632812 298.316406 143.753906 298.238281 144.871094 298.097656 C 145.984375 297.953125 147.089844 297.75 148.179688 297.480469 C 149.273438 297.210938 150.347656 296.882812 151.398438 296.488281 C 152.453125 296.097656 153.480469 295.648438 154.484375 295.136719 C 155.488281 294.628906 156.457031 294.0625 157.394531 293.441406 C 158.332031 292.820312 159.230469 292.148438 160.089844 291.421875 C 160.949219 290.699219 161.765625 289.925781 162.539062 289.109375 C 163.308594 288.289062 164.03125 287.429688 164.703125 286.527344 C 165.375 285.628906 165.996094 284.691406 166.5625 283.71875 C 166.902344 283.144531 167.222656 282.558594 167.523438 281.960938 C 169.226562 278.582031 170.238281 275.007812 170.558594 271.238281 C 170.628906 270.40625 170.683594 269.574219 170.683594 268.722656 C 170.683594 268.648438 170.671875 268.578125 170.671875 268.503906 L 242.746094 268.503906 C 244.5 268.480469 246.226562 268.257812 247.925781 267.828125 C 249.628906 267.398438 251.253906 266.773438 252.808594 265.957031 C 254.359375 265.140625 255.796875 264.15625 257.113281 263 C 258.433594 261.84375 259.601562 260.550781 260.613281 259.117188 L 261.84375 257.328125 C 261.578125 260.035156 261.578125 262.742188 261.84375 265.449219 C 261.960938 266.632812 262.152344 267.785156 262.367188 268.933594 C 263.015625 272.449219 264.105469 275.820312 265.628906 279.054688 C 266.140625 278.832031 266.628906 278.574219 267.097656 278.273438 C 267.839844 277.816406 268.542969 277.300781 269.207031 276.734375 C 270.105469 275.964844 270.925781 275.121094 271.664062 274.195312 C 272.097656 273.65625 272.5 273.09375 272.871094 272.507812 C 273.359375 271.742188 273.792969 270.972656 274.199219 270.203125 C 278.46875 262.160156 278.9375 253.984375 287.925781 245.105469 C 289.078125 243.964844 290.316406 242.925781 291.644531 241.996094 Z M 157.441406 268.722656 C 157.425781 269.78125 157.308594 270.832031 157.089844 271.867188 C 156.871094 272.90625 156.550781 273.910156 156.136719 274.886719 C 155.71875 275.859375 155.210938 276.785156 154.617188 277.660156 C 154.019531 278.535156 153.34375 279.347656 152.589844 280.089844 C 151.835938 280.835938 151.015625 281.5 150.128906 282.082031 C 149.246094 282.667969 148.3125 283.160156 147.332031 283.5625 C 146.351562 283.964844 145.34375 284.269531 144.300781 284.472656 C 143.261719 284.679688 142.210938 284.78125 141.152344 284.78125 C 140.09375 284.78125 139.042969 284.679688 138.003906 284.472656 C 136.964844 284.269531 135.953125 283.964844 134.972656 283.5625 C 133.992188 283.160156 133.058594 282.667969 132.175781 282.082031 C 131.289062 281.5 130.472656 280.835938 129.714844 280.089844 C 128.960938 279.347656 128.285156 278.535156 127.6875 277.660156 C 127.09375 276.785156 126.585938 275.859375 126.171875 274.886719 C 125.753906 273.910156 125.4375 272.90625 125.214844 271.867188 C 124.996094 270.832031 124.878906 269.78125 124.863281 268.722656 C 124.863281 268.648438 124.886719 268.578125 124.886719 268.503906 L 157.417969 268.503906 C 157.417969 268.578125 157.441406 268.648438 157.441406 268.722656 Z M 196.078125 107.632812 C 195.671875 104.585938 194.863281 98.1875 194.941406 96.515625 C 195.484375 84.847656 203.632812 75.746094 217.050781 76.367188 C 218.171875 76.421875 219.28125 76.5625 220.382812 76.789062 C 221.480469 77.019531 222.554688 77.335938 223.605469 77.734375 C 224.652344 78.132812 225.664062 78.613281 226.636719 79.175781 C 227.609375 79.738281 228.53125 80.371094 229.402344 81.078125 C 230.273438 81.785156 231.085938 82.558594 231.835938 83.394531 C 232.582031 84.230469 233.261719 85.121094 233.867188 86.066406 C 234.472656 87.011719 235.003906 88 235.453125 89.027344 C 235.902344 90.054688 236.269531 91.113281 236.550781 92.203125 L 216.003906 91.246094 C 215.722656 91.234375 215.445312 91.273438 215.179688 91.371094 C 214.914062 91.464844 214.679688 91.609375 214.46875 91.800781 C 214.261719 91.988281 214.097656 92.214844 213.976562 92.46875 C 213.855469 92.726562 213.789062 92.992188 213.777344 93.277344 L 213.453125 100.230469 C 213.4375 100.554688 213.476562 100.871094 213.5625 101.183594 C 213.652344 101.492188 213.789062 101.78125 213.972656 102.046875 C 214.15625 102.3125 214.378906 102.542969 214.640625 102.738281 C 214.898438 102.929688 215.183594 103.078125 215.488281 103.179688 L 235.695312 109.753906 C 234.425781 113.515625 232.585938 116.976562 230.183594 120.140625 C 230.003906 120.378906 229.789062 120.582031 229.542969 120.75 C 229.296875 120.917969 229.027344 121.042969 228.738281 121.125 C 228.453125 121.207031 228.160156 121.238281 227.859375 121.226562 C 227.5625 121.210938 227.273438 121.152344 226.992188 121.046875 L 197.828125 109.847656 C 197.355469 109.667969 196.960938 109.378906 196.648438 108.980469 C 196.332031 108.582031 196.144531 108.132812 196.078125 107.632812 Z M 78.6875 151.644531 L 41.476562 151.644531 C 41.210938 151.644531 40.949219 151.617188 40.6875 151.5625 C 40.429688 151.503906 40.179688 151.425781 39.9375 151.316406 C 39.691406 151.207031 39.464844 151.078125 39.25 150.921875 C 39.035156 150.765625 38.835938 150.585938 38.660156 150.390625 C 38.480469 150.191406 38.328125 149.980469 38.195312 149.75 C 38.0625 149.519531 37.953125 149.277344 37.871094 149.027344 C 37.789062 148.773438 37.734375 148.515625 37.703125 148.25 C 37.675781 147.988281 37.675781 147.722656 37.703125 147.460938 C 37.902344 145.484375 39.710938 144.058594 41.691406 144.058594 L 88.410156 144.058594 C 88.675781 144.058594 88.941406 144.03125 89.199219 143.976562 C 89.460938 143.921875 89.710938 143.839844 89.953125 143.730469 C 90.195312 143.621094 90.425781 143.492188 90.640625 143.335938 C 90.855469 143.179688 91.050781 143 91.226562 142.804688 C 91.40625 142.609375 91.5625 142.394531 91.695312 142.164062 C 91.828125 141.933594 91.933594 141.691406 92.019531 141.441406 C 92.101562 141.1875 92.15625 140.929688 92.183594 140.664062 C 92.210938 140.402344 92.210938 140.136719 92.183594 139.875 C 91.988281 137.898438 90.179688 136.472656 88.195312 136.472656 L 50.765625 136.472656 C 50.261719 136.472656 49.78125 136.375 49.316406 136.183594 C 48.851562 135.992188 48.441406 135.71875 48.085938 135.359375 C 47.726562 135.003906 47.453125 134.59375 47.261719 134.128906 C 47.070312 133.664062 46.972656 133.183594 46.972656 132.679688 C 46.972656 132.175781 47.070312 131.691406 47.261719 131.226562 C 47.453125 130.761719 47.726562 130.351562 48.085938 129.996094 C 48.441406 129.640625 48.851562 129.367188 49.316406 129.175781 C 49.78125 128.984375 50.261719 128.886719 50.765625 128.886719 L 88.410156 128.886719 C 88.675781 128.886719 88.941406 128.859375 89.199219 128.804688 C 89.460938 128.75 89.710938 128.667969 89.953125 128.558594 C 90.195312 128.449219 90.425781 128.320312 90.640625 128.164062 C 90.855469 128.007812 91.050781 127.832031 91.226562 127.632812 C 91.40625 127.4375 91.5625 127.222656 91.695312 126.992188 C 91.828125 126.761719 91.933594 126.523438 92.019531 126.269531 C 92.101562 126.015625 92.15625 125.757812 92.183594 125.496094 C 92.210938 125.230469 92.210938 124.964844 92.183594 124.703125 C 91.988281 122.726562 90.179688 121.300781 88.195312 121.300781 L 62.042969 121.300781 C 61.777344 121.300781 61.511719 121.273438 61.253906 121.21875 C 60.992188 121.164062 60.742188 121.082031 60.5 120.972656 C 60.257812 120.863281 60.027344 120.734375 59.8125 120.578125 C 59.597656 120.421875 59.402344 120.246094 59.222656 120.046875 C 59.046875 119.851562 58.890625 119.636719 58.757812 119.40625 C 58.625 119.175781 58.515625 118.933594 58.433594 118.683594 C 58.351562 118.429688 58.296875 118.171875 58.269531 117.910156 C 58.242188 117.644531 58.242188 117.378906 58.269531 117.117188 C 58.464844 115.140625 60.273438 113.714844 62.257812 113.714844 L 78.6875 113.714844 L 78.6875 109.355469 C 78.6875 108.859375 78.78125 108.378906 78.972656 107.917969 C 79.164062 107.460938 79.433594 107.054688 79.785156 106.699219 C 80.140625 106.347656 80.546875 106.078125 81.003906 105.886719 C 81.464844 105.695312 81.945312 105.601562 82.441406 105.601562 L 166.371094 105.601562 C 166.871094 105.601562 167.347656 105.695312 167.808594 105.886719 C 168.269531 106.078125 168.675781 106.347656 169.027344 106.699219 C 169.378906 107.054688 169.652344 107.460938 169.84375 107.917969 C 170.03125 108.378906 170.128906 108.859375 170.128906 109.355469 L 170.128906 182.652344 C 170.128906 182.996094 170.09375 183.335938 170.027344 183.675781 C 169.960938 184.015625 169.859375 184.34375 169.726562 184.664062 C 169.597656 184.980469 169.433594 185.285156 169.242188 185.570312 C 169.050781 185.859375 168.832031 186.125 168.589844 186.367188 C 168.34375 186.613281 168.078125 186.832031 167.792969 187.023438 C 167.503906 187.214844 167.203125 187.375 166.882812 187.507812 C 166.5625 187.640625 166.234375 187.742188 165.894531 187.808594 C 165.558594 187.875 165.214844 187.910156 164.871094 187.910156 L 82.441406 187.910156 C 81.945312 187.910156 81.464844 187.8125 81.003906 187.625 C 80.546875 187.433594 80.136719 187.160156 79.785156 186.808594 C 79.433594 186.457031 79.164062 186.050781 78.972656 185.589844 C 78.78125 185.128906 78.6875 184.648438 78.6875 184.152344 L 78.6875 159.230469 L 88.410156 159.230469 C 88.675781 159.230469 88.941406 159.203125 89.199219 159.148438 C 89.460938 159.089844 89.710938 159.011719 89.953125 158.902344 C 90.195312 158.792969 90.425781 158.664062 90.640625 158.507812 C 90.855469 158.351562 91.050781 158.171875 91.226562 157.976562 C 91.40625 157.78125 91.5625 157.566406 91.695312 157.335938 C 91.828125 157.105469 91.933594 156.863281 92.019531 156.613281 C 92.101562 156.359375 92.15625 156.101562 92.183594 155.839844 C 92.210938 155.574219 92.210938 155.308594 92.183594 155.046875 C 91.988281 153.070312 90.179688 151.644531 88.195312 151.644531 Z M 78.6875 151.644531 " fill-opacity="1" fill-rule="nonzero"/></g></svg>