<svg xmlns="http://www.w3.org/2000/svg" xmlns:xlink="http://www.w3.org/1999/xlink" width="500" zoomAndPan="magnify" viewBox="0 0 375 374.999991" height="500" preserveAspectRatio="xMidYMid meet" version="1.0"><defs><clipPath id="b3fbf2c906"><path d="M 75.761719 31.492188 L 299 31.492188 L 299 343.492188 L 75.761719 343.492188 Z M 75.761719 31.492188 " clip-rule="nonzero"/></clipPath></defs><g clip-path="url(#b3fbf2c906)"><path fill="#000000" d="M 187.417969 31.492188 C 158.546875 31.492188 130.582031 43.761719 108.683594 66.039062 C 87.945312 87.132812 75.984375 113.890625 75.875 139.453125 C 75.765625 164.601562 95.980469 208.949219 134.332031 267.699219 C 156.109375 301.058594 178.132812 330.375 188.214844 343.492188 C 198.203125 330.296875 220.007812 300.828125 241.53125 267.378906 C 279.429688 208.484375 299.285156 164.269531 298.957031 139.515625 C 298.285156 88.523438 250.4375 31.492188 187.417969 31.492188 Z M 187.417969 228.613281 C 137.9375 228.613281 97.679688 188.359375 97.679688 138.886719 C 97.679688 89.410156 137.9375 49.160156 187.417969 49.160156 C 236.902344 49.160156 277.15625 89.757812 277.15625 138.886719 C 277.15625 188.359375 236.898438 228.613281 187.417969 228.613281 Z M 187.417969 228.613281 " fill-opacity="1" fill-rule="nonzero"/></g><path fill="#000000" d="M 223.472656 78.171875 C 222.171875 78.171875 221.113281 79.230469 221.113281 80.53125 L 221.113281 107.953125 C 221.113281 111.84375 218.746094 115.011719 215.839844 115.011719 L 212.105469 115.011719 L 212.105469 80.53125 C 212.105469 79.230469 211.046875 78.171875 209.746094 78.171875 C 208.445312 78.171875 207.390625 79.230469 207.390625 80.53125 L 207.390625 115.011719 L 204.558594 115.011719 C 201.648438 115.011719 199.28125 111.84375 199.28125 107.953125 L 199.28125 80.53125 C 199.28125 79.230469 198.226562 78.171875 196.925781 78.171875 C 195.625 78.171875 194.566406 79.230469 194.566406 80.53125 L 194.566406 107.953125 C 194.566406 114.445312 199.050781 119.726562 204.558594 119.726562 L 207.390625 119.726562 L 207.390625 134.832031 L 202.105469 134.832031 L 202.105469 191.144531 C 202.105469 195.605469 205.738281 199.238281 210.199219 199.238281 C 214.664062 199.238281 218.292969 195.605469 218.292969 191.144531 L 218.292969 134.832031 L 212.105469 134.832031 L 212.105469 119.726562 L 215.839844 119.726562 C 221.351562 119.726562 225.832031 114.445312 225.832031 107.953125 L 225.832031 80.53125 C 225.832031 79.230469 224.773438 78.171875 223.472656 78.171875 Z M 223.472656 78.171875 " fill-opacity="1" fill-rule="nonzero"/><path fill="#000000" d="M 167.046875 158.730469 L 167.046875 142.730469 L 172.78125 142.730469 L 172.78125 88.03125 C 172.78125 83.566406 169.148438 79.9375 164.6875 79.9375 C 160.222656 79.9375 156.59375 83.566406 156.59375 88.03125 L 156.59375 142.730469 L 162.328125 142.730469 L 162.328125 158.730469 C 154.796875 160.285156 149.007812 169.164062 149.007812 179.855469 C 149.007812 191.632812 156.042969 201.21875 164.6875 201.21875 C 173.335938 201.21875 180.367188 191.632812 180.367188 179.855469 C 180.367188 169.164062 174.574219 160.285156 167.046875 158.730469 Z M 167.046875 158.730469 " fill-opacity="1" fill-rule="nonzero"/></svg>