<svg xmlns="http://www.w3.org/2000/svg" xmlns:xlink="http://www.w3.org/1999/xlink" width="100" zoomAndPan="magnify" viewBox="0 0 375 374.999991" height="100" preserveAspectRatio="xMidYMid meet" version="1.0"><defs><clipPath id="efebb9d925"><path d="M 121 112.5 L 254 112.5 L 254 262.5 L 121 262.5 Z M 121 112.5 " clip-rule="nonzero"/></clipPath></defs><g clip-path="url(#efebb9d925)"><path fill="#000000" d="M 204.894531 253.707031 L 173.074219 246.96875 C 170.066406 246.332031 167.027344 246.128906 163.960938 246.355469 C 160.894531 246.582031 157.921875 247.230469 155.039062 248.300781 L 140.691406 226.824219 L 155.117188 219.632812 C 158.015625 218.1875 161.074219 217.300781 164.292969 216.964844 C 167.511719 216.628906 170.6875 216.871094 173.820312 217.6875 C 190.011719 221.921875 200.539062 224.988281 202.996094 226.078125 C 203.386719 226.332031 203.734375 226.640625 204.03125 226.996094 C 204.332031 227.355469 204.570312 227.75 204.75 228.179688 C 204.929688 228.609375 205.039062 229.058594 205.082031 229.523438 C 205.125 229.984375 205.097656 230.445312 205 230.902344 C 204.941406 231.203125 204.851562 231.496094 204.734375 231.78125 C 203.878906 233.699219 201.5 234.816406 197.945312 234.949219 C 190.335938 235.214844 182.757812 234.832031 175.210938 233.804688 C 174.855469 233.753906 174.503906 233.769531 174.160156 233.855469 C 173.8125 233.941406 173.492188 234.09375 173.207031 234.304688 C 172.917969 234.515625 172.683594 234.777344 172.496094 235.082031 C 172.3125 235.386719 172.195312 235.71875 172.140625 236.070312 C 172.089844 236.421875 172.105469 236.773438 172.191406 237.121094 C 172.277344 237.464844 172.425781 237.78125 172.640625 238.070312 C 172.851562 238.359375 173.113281 238.59375 173.417969 238.777344 C 173.726562 238.960938 174.054688 239.082031 174.410156 239.132812 C 180.765625 239.988281 187.152344 240.40625 193.566406 240.386719 L 198.269531 240.386719 C 200.070312 240.414062 201.816406 240.105469 203.496094 239.453125 C 205.179688 238.804688 206.679688 237.863281 207.992188 236.628906 C 210.742188 237.617188 213.578125 238.152344 216.5 238.246094 C 219.421875 238.335938 222.285156 237.976562 225.09375 237.164062 L 230.996094 235.429688 C 231.191406 235.410156 231.378906 235.355469 231.558594 235.269531 L 248.765625 230.234375 C 249.34375 230.117188 249.921875 230.117188 250.5 230.234375 C 251.632812 230.429688 252.523438 231 253.171875 231.941406 C 253.285156 232.128906 253.382812 232.324219 253.464844 232.527344 C 253.582031 232.765625 253.675781 233.011719 253.742188 233.269531 C 253.808594 233.527344 253.851562 233.789062 253.863281 234.054688 C 253.878906 234.320312 253.863281 234.582031 253.824219 234.847656 C 253.785156 235.109375 253.71875 235.363281 253.625 235.613281 C 253.53125 235.863281 253.417969 236.101562 253.273438 236.328125 C 253.132812 236.550781 252.972656 236.761719 252.789062 236.953125 C 252.605469 237.148438 252.402344 237.320312 252.183594 237.46875 C 251.964844 237.621094 251.734375 237.75 251.488281 237.855469 L 218.546875 252.324219 C 216.40625 253.28125 214.167969 253.878906 211.832031 254.113281 C 209.496094 254.351562 207.183594 254.214844 204.894531 253.707031 Z M 247.242188 224.933594 C 247.863281 224.753906 248.496094 224.640625 249.136719 224.585938 C 249.164062 224.277344 249.164062 223.964844 249.136719 223.65625 L 249.136719 192.988281 C 249.136719 172.6875 245.746094 159.710938 238.636719 139.914062 L 237.621094 137.039062 L 236.582031 139.914062 C 229.472656 159.710938 226.082031 172.6875 226.082031 192.988281 L 226.082031 230.050781 L 229.980469 230.050781 Z M 154.398438 120.839844 L 154.398438 126.460938 L 235.03125 126.460938 L 235.03125 120.8125 C 235.03125 120.265625 234.976562 119.726562 234.871094 119.191406 C 234.765625 118.65625 234.605469 118.136719 234.398438 117.632812 C 234.1875 117.128906 233.929688 116.648438 233.625 116.195312 C 233.320312 115.742188 232.976562 115.320312 232.589844 114.933594 C 232.203125 114.546875 231.78125 114.203125 231.328125 113.902344 C 230.871094 113.597656 230.390625 113.339844 229.886719 113.132812 C 229.378906 112.925781 228.859375 112.765625 228.320312 112.660156 C 227.785156 112.554688 227.242188 112.5 226.695312 112.5 L 162.734375 112.5 C 162.183594 112.5 161.644531 112.558594 161.105469 112.664062 C 160.570312 112.773438 160.046875 112.933594 159.542969 113.140625 C 159.035156 113.351562 158.554688 113.609375 158.101562 113.914062 C 157.644531 114.21875 157.222656 114.566406 156.835938 114.953125 C 156.449219 115.339844 156.105469 115.757812 155.800781 116.214844 C 155.496094 116.667969 155.242188 117.148438 155.03125 117.652344 C 154.820312 118.160156 154.664062 118.679688 154.558594 119.214844 C 154.449219 119.75 154.398438 120.292969 154.398438 120.839844 Z M 210.503906 231.675781 C 210.695312 230.652344 210.71875 229.621094 210.582031 228.589844 C 210.445312 227.558594 210.152344 226.574219 209.699219 225.636719 C 209.246094 224.699219 208.660156 223.851562 207.941406 223.097656 C 207.21875 222.347656 206.402344 221.722656 205.480469 221.230469 C 202.0625 219.65625 187.234375 215.636719 175.425781 212.519531 C 173.546875 212.027344 171.644531 211.707031 169.710938 211.558594 C 167.777344 211.414062 165.847656 211.441406 163.917969 211.644531 C 161.988281 211.847656 160.097656 212.21875 158.234375 212.765625 C 156.375 213.3125 154.578125 214.019531 152.847656 214.890625 L 140.664062 220.964844 L 140.664062 192.933594 C 140.664062 172.6875 144.03125 159.710938 151.136719 139.914062 L 154.050781 131.921875 L 233.882812 131.921875 L 231.636719 138.265625 C 224.476562 158.21875 220.816406 172.179688 220.816406 193.121094 L 220.816406 232.554688 C 217.261719 233.113281 213.78125 232.820312 210.371094 231.675781 Z M 210.796875 192.773438 C 210.800781 192.246094 210.726562 191.726562 210.574219 191.21875 C 210.425781 190.707031 210.203125 190.230469 209.914062 189.789062 C 209.625 189.34375 209.277344 188.949219 208.875 188.605469 C 208.46875 188.261719 208.023438 187.980469 207.539062 187.765625 C 207.671875 187.269531 207.734375 186.761719 207.726562 186.246094 L 207.726562 181.160156 C 207.726562 180.683594 207.671875 180.210938 207.566406 179.746094 C 208.042969 179.554688 208.480469 179.296875 208.882812 178.976562 C 209.28125 178.652344 209.625 178.28125 209.914062 177.855469 C 210.203125 177.429688 210.421875 176.972656 210.570312 176.484375 C 210.722656 175.992188 210.796875 175.492188 210.796875 174.976562 C 210.796875 174.019531 210.75 173.058594 210.65625 172.105469 C 210.5625 171.148438 210.421875 170.203125 210.234375 169.261719 C 210.046875 168.320312 209.8125 167.390625 209.53125 166.46875 C 209.253906 165.550781 208.929688 164.648438 208.5625 163.761719 C 208.191406 162.875 207.78125 162.007812 207.328125 161.164062 C 206.875 160.316406 206.378906 159.492188 205.84375 158.695312 C 205.308594 157.898438 204.738281 157.128906 204.128906 156.386719 C 203.515625 155.644531 202.871094 154.933594 202.191406 154.253906 C 201.507812 153.574219 200.796875 152.933594 200.054688 152.324219 C 199.308594 151.714844 198.535156 151.144531 197.738281 150.609375 C 196.9375 150.078125 196.113281 149.582031 195.261719 149.132812 C 194.414062 148.679688 193.546875 148.269531 192.65625 147.902344 C 191.765625 147.535156 190.859375 147.210938 189.941406 146.933594 C 189.019531 146.652344 188.085938 146.421875 187.140625 146.234375 C 186.199219 146.046875 185.246094 145.90625 184.289062 145.8125 C 183.332031 145.71875 182.371094 145.671875 181.410156 145.671875 L 180.125 145.671875 C 179.164062 145.671875 178.203125 145.71875 177.246094 145.8125 C 176.289062 145.90625 175.335938 146.046875 174.394531 146.234375 C 173.449219 146.421875 172.515625 146.652344 171.59375 146.933594 C 170.675781 147.210938 169.769531 147.535156 168.878906 147.902344 C 167.992188 148.269531 167.121094 148.679688 166.273438 149.132812 C 165.421875 149.582031 164.597656 150.078125 163.796875 150.609375 C 163 151.144531 162.226562 151.714844 161.480469 152.324219 C 160.738281 152.933594 160.027344 153.574219 159.34375 154.253906 C 158.664062 154.933594 158.019531 155.644531 157.40625 156.386719 C 156.796875 157.128906 156.226562 157.898438 155.691406 158.695312 C 155.15625 159.492188 154.660156 160.316406 154.207031 161.164062 C 153.753906 162.007812 153.34375 162.875 152.972656 163.761719 C 152.605469 164.648438 152.28125 165.550781 152.003906 166.46875 C 151.722656 167.390625 151.488281 168.320312 151.300781 169.261719 C 151.113281 170.203125 150.972656 171.148438 150.878906 172.105469 C 150.785156 173.058594 150.738281 174.019531 150.738281 174.976562 C 150.738281 175.492188 150.8125 175.992188 150.964844 176.484375 C 151.113281 176.972656 151.332031 177.429688 151.621094 177.855469 C 151.910156 178.28125 152.253906 178.652344 152.652344 178.976562 C 153.054688 179.296875 153.492188 179.554688 153.96875 179.746094 C 153.863281 180.210938 153.808594 180.683594 153.808594 181.160156 L 153.808594 186.246094 C 153.800781 186.761719 153.863281 187.269531 153.996094 187.765625 C 153.511719 187.980469 153.066406 188.261719 152.660156 188.605469 C 152.257812 188.949219 151.910156 189.34375 151.621094 189.789062 C 151.332031 190.230469 151.109375 190.707031 150.960938 191.21875 C 150.808594 191.726562 150.734375 192.246094 150.738281 192.773438 C 150.738281 193.476562 150.804688 194.167969 150.941406 194.855469 C 151.078125 195.539062 151.28125 196.207031 151.550781 196.855469 C 151.820312 197.5 152.148438 198.113281 152.539062 198.695312 C 152.929688 199.277344 153.371094 199.816406 153.867188 200.3125 C 154.363281 200.804688 154.902344 201.246094 155.488281 201.636719 C 156.070312 202.023438 156.6875 202.351562 157.335938 202.621094 C 157.984375 202.890625 158.652344 203.089844 159.339844 203.226562 C 160.027344 203.363281 160.722656 203.433594 161.425781 203.433594 L 199.949219 203.433594 C 200.652344 203.433594 201.347656 203.363281 202.035156 203.226562 C 202.722656 203.089844 203.390625 202.890625 204.039062 202.621094 C 204.6875 202.351562 205.304688 202.023438 205.886719 201.636719 C 206.472656 201.246094 207.011719 200.804688 207.507812 200.3125 C 208.003906 199.816406 208.445312 199.277344 208.835938 198.695312 C 209.226562 198.113281 209.554688 197.5 209.824219 196.855469 C 210.09375 196.207031 210.296875 195.539062 210.433594 194.855469 C 210.570312 194.167969 210.636719 193.476562 210.636719 192.773438 Z M 181.410156 151.105469 L 180.125 151.105469 C 179.347656 151.109375 178.570312 151.152344 177.796875 151.230469 C 177.023438 151.3125 176.253906 151.425781 175.488281 151.582031 C 174.726562 151.734375 173.972656 151.925781 173.226562 152.152344 C 172.484375 152.378906 171.75 152.640625 171.03125 152.941406 C 170.3125 153.238281 169.609375 153.570312 168.925781 153.9375 C 168.238281 154.300781 167.570312 154.699219 166.921875 155.132812 C 166.273438 155.5625 165.648438 156.023438 165.046875 156.515625 C 164.441406 157.003906 163.863281 157.523438 163.3125 158.070312 C 162.761719 158.617188 162.234375 159.191406 161.738281 159.789062 C 161.242188 160.386719 160.777344 161.007812 160.339844 161.652344 C 159.902344 162.292969 159.5 162.957031 159.128906 163.640625 C 158.757812 164.320312 158.417969 165.019531 158.113281 165.734375 C 157.8125 166.449219 157.542969 167.179688 157.3125 167.917969 C 157.078125 168.660156 156.882812 169.410156 156.722656 170.171875 C 156.5625 170.929688 156.441406 171.695312 156.355469 172.46875 C 156.269531 173.242188 156.222656 174.015625 156.214844 174.792969 L 205.320312 174.792969 C 205.3125 174.011719 205.265625 173.234375 205.179688 172.460938 C 205.09375 171.6875 204.96875 170.917969 204.808594 170.15625 C 204.648438 169.390625 204.453125 168.640625 204.21875 167.894531 C 203.984375 167.152344 203.710938 166.421875 203.40625 165.703125 C 203.101562 164.988281 202.761719 164.289062 202.386719 163.601562 C 202.011719 162.917969 201.605469 162.253906 201.167969 161.609375 C 200.726562 160.964844 200.257812 160.34375 199.757812 159.746094 C 199.257812 159.144531 198.730469 158.574219 198.175781 158.023438 C 197.621094 157.476562 197.039062 156.957031 196.429688 156.46875 C 195.824219 155.976562 195.195312 155.515625 194.542969 155.085938 C 193.890625 154.65625 193.21875 154.257812 192.53125 153.894531 C 191.839844 153.527344 191.132812 153.199219 190.410156 152.902344 C 189.6875 152.605469 188.953125 152.347656 188.203125 152.121094 C 187.453125 151.898438 186.695312 151.710938 185.929688 151.558594 C 185.164062 151.40625 184.390625 151.292969 183.613281 151.21875 C 182.835938 151.144531 182.058594 151.105469 181.273438 151.105469 Z M 156.320312 192.617188 C 156.308594 192.972656 156.332031 193.328125 156.390625 193.679688 C 156.449219 194.035156 156.542969 194.378906 156.671875 194.710938 C 156.800781 195.046875 156.960938 195.363281 157.15625 195.664062 C 157.347656 195.96875 157.570312 196.246094 157.820312 196.503906 C 158.066406 196.761719 158.339844 196.992188 158.636719 197.195312 C 158.933594 197.398438 159.246094 197.566406 159.574219 197.707031 C 159.90625 197.847656 160.246094 197.953125 160.597656 198.023438 C 160.949219 198.09375 161.304688 198.128906 161.664062 198.128906 L 199.949219 198.128906 C 200.300781 198.128906 200.648438 198.097656 200.992188 198.027344 C 201.335938 197.960938 201.671875 197.859375 201.996094 197.726562 C 202.320312 197.589844 202.628906 197.425781 202.917969 197.234375 C 203.210938 197.039062 203.480469 196.816406 203.730469 196.570312 C 203.976562 196.324219 204.199219 196.054688 204.394531 195.761719 C 204.589844 195.472656 204.753906 195.164062 204.886719 194.839844 C 205.023438 194.519531 205.125 194.183594 205.191406 193.839844 C 205.261719 193.5 205.292969 193.152344 205.292969 192.800781 L 160.25 192.640625 Z M 201.207031 187.285156 C 201.347656 187.289062 201.480469 187.265625 201.609375 187.214844 C 201.738281 187.164062 201.851562 187.089844 201.953125 186.992188 C 202.050781 186.890625 202.125 186.777344 202.175781 186.648438 C 202.226562 186.519531 202.253906 186.386719 202.25 186.246094 L 202.25 181.160156 C 202.253906 181.019531 202.226562 180.886719 202.175781 180.757812 C 202.125 180.628906 202.050781 180.515625 201.953125 180.417969 C 201.851562 180.316406 201.738281 180.242188 201.609375 180.191406 C 201.480469 180.140625 201.347656 180.117188 201.207031 180.121094 L 160.273438 180.121094 C 160.136719 180.121094 160.003906 180.144531 159.875 180.199219 C 159.75 180.25 159.636719 180.328125 159.539062 180.425781 C 159.441406 180.523438 159.367188 180.632812 159.3125 180.761719 C 159.257812 180.886719 159.234375 181.019531 159.234375 181.160156 L 159.234375 186.246094 C 159.234375 186.386719 159.257812 186.519531 159.3125 186.644531 C 159.367188 186.773438 159.441406 186.886719 159.539062 186.984375 C 159.636719 187.078125 159.75 187.15625 159.875 187.207031 C 160.003906 187.261719 160.136719 187.285156 160.273438 187.285156 Z M 134.332031 227.066406 L 134.066406 226.664062 C 133.847656 226.324219 133.5625 226.054688 133.207031 225.859375 C 132.847656 225.664062 132.46875 225.570312 132.0625 225.574219 C 131.574219 225.574219 131.128906 225.707031 130.726562 225.972656 L 122.496094 231.328125 C 121.96875 231.71875 121.628906 232.234375 121.480469 232.871094 C 121.34375 233.515625 121.457031 234.113281 121.828125 234.65625 L 139.597656 261.300781 C 139.96875 261.859375 140.484375 262.195312 141.144531 262.3125 C 141.792969 262.453125 142.386719 262.335938 142.933594 261.96875 L 151.164062 256.371094 C 151.589844 256.074219 151.886719 255.679688 152.050781 255.1875 C 152.210938 254.691406 152.210938 254.199219 152.046875 253.707031 C 151.785156 253.472656 151.582031 253.199219 151.433594 252.882812 C 151.347656 252.699219 151.277344 252.511719 151.21875 252.324219 L 134.8125 227.785156 C 134.632812 227.605469 134.492188 227.402344 134.386719 227.171875 C 134.386719 227.171875 134.332031 227.066406 134.332031 227.066406 Z M 134.332031 227.066406 " fill-opacity="1" fill-rule="nonzero"/></g></svg>