<svg xmlns="http://www.w3.org/2000/svg" xmlns:xlink="http://www.w3.org/1999/xlink" width="500" zoomAndPan="magnify" viewBox="0 0 375 374.999991" height="500" preserveAspectRatio="xMidYMid meet" version="1.0"><defs><clipPath id="d6fcae401c"><path d="M 72 56.804688 L 303 56.804688 L 303 318.554688 L 72 318.554688 Z M 72 56.804688 " clip-rule="nonzero"/></clipPath></defs><g clip-path="url(#d6fcae401c)"><path fill="#000000" d="M 217.375 303.214844 L 162.089844 291.449219 C 156.863281 290.34375 151.585938 289.988281 146.257812 290.382812 C 140.929688 290.777344 135.761719 291.90625 130.753906 293.773438 L 105.828125 256.300781 L 130.894531 243.75 C 133.390625 242.5 135.976562 241.484375 138.652344 240.703125 C 141.332031 239.921875 144.058594 239.386719 146.832031 239.09375 C 149.605469 238.804688 152.386719 238.765625 155.167969 238.976562 C 157.949219 239.191406 160.6875 239.648438 163.386719 240.355469 C 191.519531 247.75 209.808594 253.09375 214.078125 255 C 214.761719 255.445312 215.359375 255.976562 215.878906 256.601562 C 216.398438 257.226562 216.8125 257.917969 217.125 258.667969 C 217.433594 259.417969 217.628906 260.199219 217.703125 261.007812 C 217.777344 261.816406 217.730469 262.621094 217.5625 263.414062 C 217.453125 263.941406 217.300781 264.453125 217.097656 264.949219 C 215.609375 268.296875 211.480469 270.25 205.304688 270.484375 C 192.082031 270.941406 178.914062 270.273438 165.800781 268.484375 C 165.496094 268.4375 165.191406 268.421875 164.882812 268.4375 C 164.574219 268.453125 164.273438 268.496094 163.972656 268.574219 C 163.675781 268.648438 163.386719 268.75 163.109375 268.882812 C 162.828125 269.015625 162.566406 269.171875 162.320312 269.355469 C 162.070312 269.539062 161.84375 269.746094 161.636719 269.972656 C 161.429688 270.199219 161.246094 270.449219 161.089844 270.710938 C 160.929688 270.976562 160.796875 271.253906 160.695312 271.542969 C 160.589844 271.832031 160.515625 272.132812 160.46875 272.4375 C 160.425781 272.742188 160.410156 273.046875 160.421875 273.355469 C 160.4375 273.664062 160.480469 273.96875 160.554688 274.265625 C 160.628906 274.566406 160.734375 274.855469 160.863281 275.132812 C 160.996094 275.414062 161.152344 275.675781 161.335938 275.925781 C 161.519531 276.171875 161.722656 276.402344 161.949219 276.609375 C 162.179688 276.816406 162.425781 277 162.6875 277.160156 C 162.953125 277.320312 163.226562 277.449219 163.519531 277.554688 C 163.808594 277.660156 164.105469 277.734375 164.410156 277.78125 C 175.453125 279.273438 186.546875 280.003906 197.691406 279.96875 L 205.863281 279.96875 C 207.414062 279.992188 208.957031 279.867188 210.484375 279.59375 C 212.011719 279.320312 213.5 278.902344 214.949219 278.339844 C 216.398438 277.78125 217.777344 277.082031 219.09375 276.253906 C 220.40625 275.425781 221.628906 274.476562 222.757812 273.410156 C 225.132812 274.265625 227.5625 274.929688 230.039062 275.402344 C 232.519531 275.875 235.019531 276.152344 237.539062 276.230469 C 240.0625 276.308594 242.574219 276.191406 245.078125 275.875 C 247.582031 275.558594 250.046875 275.046875 252.46875 274.339844 L 262.726562 271.320312 C 263.070312 271.28125 263.394531 271.1875 263.703125 271.039062 L 293.597656 262.253906 C 294.601562 262.042969 295.609375 262.042969 296.613281 262.253906 C 297.558594 262.417969 298.429688 262.757812 299.234375 263.273438 C 300.039062 263.789062 300.714844 264.441406 301.257812 265.230469 C 301.453125 265.554688 301.625 265.898438 301.765625 266.253906 C 301.972656 266.667969 302.132812 267.101562 302.25 267.550781 C 302.363281 268 302.433594 268.453125 302.460938 268.917969 C 302.484375 269.378906 302.460938 269.839844 302.390625 270.300781 C 302.320312 270.757812 302.203125 271.207031 302.042969 271.640625 C 301.882812 272.074219 301.679688 272.488281 301.4375 272.882812 C 301.191406 273.277344 300.910156 273.640625 300.589844 273.976562 C 300.269531 274.3125 299.921875 274.613281 299.539062 274.878906 C 299.160156 275.144531 298.757812 275.367188 298.332031 275.550781 L 241.097656 300.796875 C 237.375 302.464844 233.488281 303.507812 229.429688 303.921875 C 225.375 304.335938 221.355469 304.097656 217.375 303.214844 Z M 290.953125 253 C 292.03125 252.691406 293.128906 252.488281 294.246094 252.398438 C 294.292969 251.855469 294.292969 251.3125 294.246094 250.769531 L 294.246094 197.257812 C 294.246094 161.832031 288.351562 139.1875 276.003906 104.644531 L 274.238281 99.625 L 272.429688 104.644531 C 260.082031 139.1875 254.1875 161.832031 254.1875 197.257812 L 254.1875 261.929688 L 260.964844 261.929688 Z M 129.640625 71.359375 L 129.640625 81.167969 L 269.738281 81.167969 L 269.738281 71.3125 C 269.738281 70.359375 269.644531 69.414062 269.457031 68.480469 C 269.273438 67.546875 269 66.640625 268.636719 65.761719 C 268.269531 64.878906 267.824219 64.042969 267.296875 63.253906 C 266.769531 62.460938 266.167969 61.726562 265.496094 61.054688 C 264.824219 60.378906 264.089844 59.777344 263.300781 59.25 C 262.511719 58.722656 261.675781 58.273438 260.796875 57.910156 C 259.917969 57.546875 259.011719 57.269531 258.078125 57.085938 C 257.148438 56.898438 256.203125 56.804688 255.253906 56.804688 L 144.125 56.804688 C 143.171875 56.808594 142.230469 56.90625 141.296875 57.09375 C 140.363281 57.28125 139.457031 57.558594 138.578125 57.925781 C 137.699219 58.292969 136.863281 58.742188 136.074219 59.273438 C 135.28125 59.804688 134.550781 60.410156 133.878906 61.085938 C 133.207031 61.757812 132.605469 62.492188 132.078125 63.289062 C 131.550781 64.082031 131.105469 64.917969 130.742188 65.800781 C 130.378906 66.679688 130.105469 67.589844 129.917969 68.523438 C 129.734375 69.460938 129.640625 70.402344 129.640625 71.359375 Z M 227.125 264.765625 C 227.285156 263.875 227.378906 262.980469 227.402344 262.078125 C 227.425781 261.179688 227.378906 260.28125 227.257812 259.386719 C 227.140625 258.492188 226.953125 257.609375 226.695312 256.746094 C 226.4375 255.882812 226.113281 255.042969 225.722656 254.226562 C 225.335938 253.414062 224.882812 252.636719 224.371094 251.894531 C 223.859375 251.152344 223.292969 250.453125 222.667969 249.800781 C 222.046875 249.148438 221.378906 248.546875 220.660156 248 C 219.945312 247.453125 219.191406 246.96875 218.394531 246.539062 C 212.453125 243.796875 186.691406 236.777344 166.171875 231.335938 C 162.914062 230.480469 159.605469 229.921875 156.246094 229.667969 C 152.886719 229.410156 149.53125 229.457031 146.183594 229.8125 C 142.832031 230.164062 139.539062 230.816406 136.308594 231.769531 C 133.078125 232.722656 129.957031 233.957031 126.949219 235.472656 L 105.78125 246.074219 L 105.78125 197.164062 C 105.78125 161.832031 111.628906 139.1875 123.976562 104.644531 L 129.035156 90.699219 L 267.742188 90.699219 L 263.84375 101.761719 C 251.402344 136.585938 245.042969 160.949219 245.042969 197.492188 L 245.042969 266.296875 C 242 266.777344 238.941406 266.890625 235.875 266.628906 C 232.804688 266.371094 229.808594 265.75 226.890625 264.765625 Z M 227.632812 196.886719 C 227.636719 195.960938 227.507812 195.054688 227.246094 194.167969 C 226.984375 193.28125 226.601562 192.449219 226.101562 191.671875 C 225.597656 190.894531 224.996094 190.207031 224.292969 189.609375 C 223.589844 189.007812 222.816406 188.519531 221.96875 188.144531 C 222.199219 187.277344 222.308594 186.394531 222.296875 185.496094 L 222.296875 176.617188 C 222.296875 175.785156 222.203125 174.960938 222.015625 174.152344 C 222.847656 173.816406 223.609375 173.371094 224.304688 172.808594 C 225 172.246094 225.597656 171.59375 226.097656 170.851562 C 226.597656 170.109375 226.980469 169.3125 227.242188 168.457031 C 227.503906 167.601562 227.632812 166.722656 227.632812 165.828125 C 227.632812 164.15625 227.550781 162.484375 227.386719 160.816406 C 227.222656 159.148438 226.980469 157.496094 226.652344 155.851562 C 226.328125 154.210938 225.921875 152.585938 225.433594 150.984375 C 224.949219 149.382812 224.386719 147.804688 223.746094 146.257812 C 223.105469 144.710938 222.394531 143.199219 221.605469 141.722656 C 220.816406 140.246094 219.957031 138.808594 219.027344 137.417969 C 218.097656 136.023438 217.105469 134.679688 216.042969 133.386719 C 214.980469 132.089844 213.859375 130.851562 212.679688 129.667969 C 211.496094 128.484375 210.257812 127.359375 208.964844 126.296875 C 207.671875 125.234375 206.332031 124.238281 204.941406 123.308594 C 203.550781 122.375 202.117188 121.515625 200.640625 120.726562 C 199.167969 119.9375 197.65625 119.222656 196.113281 118.582031 C 194.566406 117.941406 192.996094 117.375 191.394531 116.890625 C 189.792969 116.402344 188.171875 115.996094 186.53125 115.671875 C 184.894531 115.34375 183.242188 115.097656 181.578125 114.933594 C 179.910156 114.769531 178.242188 114.6875 176.570312 114.6875 L 174.34375 114.6875 C 172.671875 114.6875 171.003906 114.769531 169.339844 114.933594 C 167.675781 115.097656 166.023438 115.34375 164.382812 115.671875 C 162.742188 115.996094 161.121094 116.402344 159.519531 116.890625 C 157.921875 117.375 156.347656 117.941406 154.800781 118.582031 C 153.257812 119.222656 151.746094 119.9375 150.273438 120.726562 C 148.796875 121.515625 147.363281 122.375 145.972656 123.308594 C 144.582031 124.238281 143.242188 125.234375 141.949219 126.296875 C 140.65625 127.359375 139.417969 128.484375 138.238281 129.667969 C 137.054688 130.851562 135.933594 132.089844 134.871094 133.386719 C 133.808594 134.679688 132.816406 136.023438 131.886719 137.417969 C 130.957031 138.808594 130.097656 140.246094 129.308594 141.722656 C 128.523438 143.199219 127.808594 144.710938 127.167969 146.257812 C 126.527344 147.804688 125.964844 149.382812 125.480469 150.984375 C 124.992188 152.585938 124.589844 154.210938 124.261719 155.851562 C 123.933594 157.496094 123.691406 159.148438 123.527344 160.816406 C 123.363281 162.484375 123.28125 164.15625 123.28125 165.828125 C 123.28125 166.722656 123.410156 167.601562 123.675781 168.457031 C 123.9375 169.3125 124.316406 170.109375 124.816406 170.851562 C 125.316406 171.59375 125.914062 172.246094 126.609375 172.808594 C 127.304688 173.371094 128.070312 173.816406 128.898438 174.152344 C 128.710938 174.960938 128.617188 175.785156 128.617188 176.617188 L 128.617188 185.496094 C 128.605469 186.394531 128.714844 187.277344 128.945312 188.144531 C 128.097656 188.519531 127.324219 189.007812 126.621094 189.609375 C 125.917969 190.207031 125.316406 190.894531 124.8125 191.671875 C 124.3125 192.449219 123.929688 193.28125 123.667969 194.167969 C 123.40625 195.054688 123.277344 195.960938 123.28125 196.886719 C 123.28125 197.496094 123.308594 198.101562 123.371094 198.707031 C 123.429688 199.316406 123.519531 199.917969 123.636719 200.515625 C 123.757812 201.113281 123.902344 201.703125 124.082031 202.285156 C 124.257812 202.867188 124.460938 203.441406 124.695312 204.003906 C 124.925781 204.566406 125.1875 205.117188 125.472656 205.652344 C 125.761719 206.191406 126.070312 206.710938 126.410156 207.21875 C 126.746094 207.722656 127.109375 208.210938 127.496094 208.683594 C 127.882812 209.15625 128.289062 209.605469 128.71875 210.035156 C 129.148438 210.464844 129.597656 210.875 130.070312 211.261719 C 130.539062 211.648438 131.027344 212.011719 131.53125 212.347656 C 132.039062 212.6875 132.558594 213 133.097656 213.285156 C 133.632812 213.574219 134.179688 213.835938 134.742188 214.066406 C 135.304688 214.300781 135.875 214.503906 136.457031 214.683594 C 137.039062 214.859375 137.628906 215.007812 138.226562 215.125 C 138.824219 215.246094 139.421875 215.332031 140.027344 215.394531 C 140.632812 215.453125 141.242188 215.484375 141.847656 215.484375 L 208.789062 215.484375 C 209.394531 215.484375 210.003906 215.453125 210.605469 215.394531 C 211.210938 215.332031 211.8125 215.246094 212.410156 215.125 C 213.007812 215.007812 213.59375 214.859375 214.175781 214.683594 C 214.757812 214.503906 215.332031 214.300781 215.894531 214.066406 C 216.453125 213.835938 217.003906 213.574219 217.539062 213.285156 C 218.078125 213 218.597656 212.6875 219.101562 212.347656 C 219.609375 212.011719 220.097656 211.648438 220.566406 211.261719 C 221.035156 210.875 221.488281 210.464844 221.917969 210.035156 C 222.347656 209.605469 222.753906 209.15625 223.140625 208.683594 C 223.527344 208.210938 223.886719 207.722656 224.226562 207.21875 C 224.5625 206.710938 224.875 206.191406 225.164062 205.652344 C 225.449219 205.117188 225.710938 204.566406 225.941406 204.003906 C 226.175781 203.441406 226.378906 202.867188 226.554688 202.285156 C 226.730469 201.703125 226.878906 201.113281 227 200.515625 C 227.117188 199.917969 227.207031 199.316406 227.265625 198.707031 C 227.324219 198.101562 227.355469 197.496094 227.355469 196.886719 Z M 176.570312 124.171875 L 174.34375 124.171875 C 172.992188 124.179688 171.640625 124.253906 170.296875 124.390625 C 168.949219 124.53125 167.613281 124.734375 166.289062 125.003906 C 164.960938 125.269531 163.652344 125.605469 162.359375 126 C 161.0625 126.394531 159.792969 126.855469 158.542969 127.375 C 157.292969 127.894531 156.074219 128.472656 154.878906 129.113281 C 153.6875 129.75 152.527344 130.445312 151.402344 131.195312 C 150.277344 131.949219 149.1875 132.753906 148.140625 133.609375 C 147.09375 134.46875 146.089844 135.375 145.128906 136.328125 C 144.171875 137.28125 143.257812 138.28125 142.394531 139.324219 C 141.53125 140.367188 140.722656 141.453125 139.964844 142.574219 C 139.207031 143.695312 138.503906 144.851562 137.859375 146.042969 C 137.214844 147.234375 136.628906 148.453125 136.097656 149.703125 C 135.570312 150.949219 135.105469 152.21875 134.703125 153.511719 C 134.296875 154.804688 133.957031 156.117188 133.679688 157.441406 C 133.402344 158.769531 133.191406 160.105469 133.042969 161.453125 C 132.894531 162.796875 132.8125 164.148438 132.796875 165.503906 L 218.117188 165.503906 C 218.101562 164.144531 218.019531 162.789062 217.871094 161.4375 C 217.722656 160.085938 217.507812 158.742188 217.226562 157.414062 C 216.949219 156.082031 216.605469 154.769531 216.199219 153.472656 C 215.792969 152.175781 215.324219 150.898438 214.792969 149.648438 C 214.261719 148.398438 213.671875 147.175781 213.019531 145.980469 C 212.371094 144.785156 211.664062 143.628906 210.902344 142.503906 C 210.136719 141.378906 209.320312 140.292969 208.453125 139.246094 C 207.585938 138.203125 206.667969 137.203125 205.703125 136.246094 C 204.734375 135.289062 203.726562 134.382812 202.671875 133.527344 C 201.617188 132.671875 200.523438 131.867188 199.390625 131.117188 C 198.257812 130.367188 197.09375 129.671875 195.894531 129.035156 C 194.695312 128.402344 193.464844 127.824219 192.210938 127.308594 C 190.953125 126.792969 189.675781 126.335938 188.375 125.945312 C 187.074219 125.554688 185.757812 125.226562 184.425781 124.964844 C 183.09375 124.699219 181.753906 124.503906 180.402344 124.371094 C 179.050781 124.238281 177.695312 124.171875 176.339844 124.171875 Z M 132.984375 196.605469 C 132.960938 197.230469 133 197.851562 133.105469 198.46875 C 133.207031 199.082031 133.371094 199.683594 133.59375 200.265625 C 133.816406 200.847656 134.097656 201.402344 134.429688 201.929688 C 134.765625 202.457031 135.152344 202.945312 135.585938 203.394531 C 136.015625 203.84375 136.492188 204.242188 137.003906 204.597656 C 137.519531 204.949219 138.0625 205.25 138.636719 205.492188 C 139.210938 205.738281 139.804688 205.921875 140.414062 206.046875 C 141.027344 206.167969 141.644531 206.230469 142.265625 206.230469 L 208.789062 206.230469 C 209.398438 206.230469 210 206.171875 210.597656 206.050781 C 211.195312 205.933594 211.777344 205.757812 212.339844 205.523438 C 212.902344 205.289062 213.4375 205.003906 213.945312 204.664062 C 214.453125 204.324219 214.921875 203.9375 215.351562 203.507812 C 215.78125 203.074219 216.167969 202.605469 216.507812 202.097656 C 216.84375 201.589844 217.132812 201.054688 217.363281 200.492188 C 217.597656 199.925781 217.773438 199.34375 217.894531 198.746094 C 218.011719 198.148438 218.070312 197.542969 218.070312 196.933594 L 139.804688 196.652344 Z M 210.96875 187.308594 C 211.210938 187.316406 211.445312 187.273438 211.667969 187.183594 C 211.894531 187.09375 212.09375 186.964844 212.261719 186.792969 C 212.433594 186.621094 212.566406 186.421875 212.65625 186.195312 C 212.746094 185.972656 212.785156 185.738281 212.78125 185.496094 L 212.78125 176.617188 C 212.785156 176.375 212.746094 176.140625 212.65625 175.914062 C 212.566406 175.6875 212.433594 175.492188 212.261719 175.320312 C 212.09375 175.148438 211.894531 175.015625 211.667969 174.925781 C 211.445312 174.835938 211.210938 174.796875 210.96875 174.800781 L 139.851562 174.800781 C 139.613281 174.800781 139.382812 174.847656 139.160156 174.941406 C 138.9375 175.03125 138.742188 175.164062 138.574219 175.332031 C 138.402344 175.503906 138.273438 175.699219 138.179688 175.921875 C 138.089844 176.144531 138.042969 176.375 138.042969 176.617188 L 138.042969 185.496094 C 138.042969 185.734375 138.089844 185.96875 138.179688 186.1875 C 138.273438 186.410156 138.402344 186.609375 138.574219 186.777344 C 138.742188 186.949219 138.9375 187.078125 139.160156 187.171875 C 139.382812 187.261719 139.613281 187.308594 139.851562 187.308594 Z M 94.777344 256.722656 L 94.3125 256.023438 C 93.9375 255.425781 93.4375 254.957031 92.820312 254.617188 C 92.199219 254.28125 91.539062 254.113281 90.832031 254.117188 C 89.988281 254.117188 89.214844 254.351562 88.511719 254.816406 L 74.214844 264.160156 C 73.292969 264.839844 72.707031 265.738281 72.449219 266.855469 C 72.210938 267.980469 72.410156 269.019531 73.054688 269.972656 L 103.921875 316.464844 C 104.570312 317.4375 105.464844 318.027344 106.617188 318.230469 C 107.738281 318.472656 108.773438 318.269531 109.726562 317.625 L 124.023438 307.863281 C 124.382812 307.609375 124.695312 307.304688 124.957031 306.953125 C 125.222656 306.597656 125.421875 306.210938 125.558594 305.792969 C 125.699219 305.375 125.765625 304.945312 125.765625 304.503906 C 125.765625 304.0625 125.695312 303.632812 125.554688 303.214844 C 125.105469 302.804688 124.75 302.324219 124.488281 301.773438 C 124.34375 301.453125 124.21875 301.128906 124.117188 300.796875 L 95.613281 257.976562 C 95.300781 257.664062 95.054688 257.308594 94.871094 256.90625 C 94.871094 256.90625 94.777344 256.722656 94.777344 256.722656 Z M 94.777344 256.722656 " fill-opacity="1" fill-rule="nonzero"/></g></svg>